<svg id="Layer_2" data-name="Layer 2" xmlns="http://www.w3.org/2000/svg" viewBox="0 0 139.74 106.45"><path d="M104.3,68.39H92.11l-6.85,14h19" transform="translate(-5.13 -22.33)"/><path d="M135.74,75.28c6.06-5,9.13-12.67,9.13-22.93,0-13.48-4.55-22.15-13.9-26.49-7.6-3.53-17.09-3.53-28.08-3.53H98.53l-41,74.76-41-74.76H5.13V128.78h14V59.37l38.38,69.41,49.73-92.44c7.46,0,13.8.35,17.83,2.22,1.88.87,5.8,2.69,5.8,13.79,0,14.66-7.2,16-27.78,16h-.2v14h1.6c7.48,0,15.1.07,19.93,2.25,3.19,1.44,6.45,4.21,6.45,13.77,0,11.32-3.51,13-5.2,13.86-4.41,2.17-12.49,2.17-21.78,2.16H68.57l-6.84,14h42.16c11.5,0,20.61,0,27.94-3.58,8.78-4.3,13-13,13-26.44C144.87,88,141.8,80.25,135.74,75.28Z" transform="translate(-5.13 -22.33)"/></svg>