<svg xmlns="http://www.w3.org/2000/svg" xmlns:xlink="http://www.w3.org/1999/xlink" viewBox="0 0 500 259.1"><defs><style>.cls-1{fill:#2b2727;}.cls-2{fill:#423c3c;}.cls-3{opacity:0.9;fill:url(#linear-gradient);}.cls-4{fill:#5b5b4c;}.cls-5{fill:#ffece1;}.cls-6{fill:#544c24;}.cls-7{fill:#0f0f0f;}.cls-8{fill:#1b1008;}.cls-9{fill:#89796a;}.cls-10{fill:#211616;}.cls-11{opacity:0.5;}.cls-12{fill:#26221e;}.cls-13{fill:#332d28;}.cls-14{fill:#26211c;}.cls-15{fill:#60554c;}.cls-16{fill:#77695f;}.cls-17{fill:#0c0a09;}.cls-18{fill:#897860;}.cls-19{fill:#726351;}.cls-20{fill:#594f3e;}.cls-21{fill:#3f372c;}.cls-22{fill:#77695d;}.cls-23{fill:#9b8e81;}.cls-24{opacity:0.2;}.cls-25{opacity:0.29;}.cls-26{opacity:0.31;}.cls-27{fill:#3f372e;}.cls-28{fill:url(#linear-gradient-2);}</style><linearGradient id="linear-gradient" x1="250" y1="229.69" x2="250" gradientUnits="userSpaceOnUse"><stop offset="0" stop-color="#d5923a"/><stop offset="0.47" stop-color="#b47c35" stop-opacity="0.81"/><stop offset="1" stop-opacity="0"/></linearGradient><linearGradient id="linear-gradient-2" x1="246.82" y1="126.43" x2="248.11" y2="141.19" gradientUnits="userSpaceOnUse"><stop offset="0" stop-color="#fff" stop-opacity="0"/><stop offset="0.5" stop-opacity="0.05"/><stop offset="1" stop-opacity="0.5"/></linearGradient></defs><g id="sky"><polygon points="182.44 205.85 182.44 199.3 160.54 198.52 159.74 208.32 182.44 205.85"/><path class="cls-1" d="M500,199.76l-1.08.81-3.52-.68-3.62,2.54-14.08,1-7.34-1.91L450.6,201,443,198.32l-4.5,1.76L406.92,203l-7.44-.49-25.19-3.92-8.21,3.77-9.69-1.22-6.7-1.13-3,.88-4.7-.83-2.93.49-2,2.25-4.84-1.57-8.51.74-3.92-1.71-7.72-.05-9,.83-1.95.83-4.16-.24-5.43-.2-7.78-.93-2.2.1-4.08-1.74-1.25.83-1.47-.17L270,202.43l-1.39-.51-7.41.14a12.78,12.78,0,0,1-1.94.74c-.09-.08-1.44-1.74-1.44-1.74l-1.51.44-1.65-.46L250,202.62l-1.54-.26-1.89,1.1-2-.84-6.52,2.74-4.57-1.24-7.37.33-.39-1-2.22-1.23-1.5.85-1-.59-1.83,1-.32,1.32-.92.19-2.34-.52-6.39.26-6.66-2.15-3.06.9-2.61-.57-6.88-.07-2.84,1.47L183.92,203l-2.15-2.35L171.7,199l-8.12-.68s-6.56,2-10.57,3.52-13.5,1.76-13.5,1.76l-4,5-5.18-3-7.15-.8-4.59,2.54-2.45-1.74h-3.91l-3.33,3-6.85-.88-7.63-3.6-5.08,1.55-8.51-1.08H70.35l-2.94-2L64,204.11l-6.56-.8-5.28.8L48,202.56l-6,2.9-6.16-1-5.09,1.23-10.62-1.32L17,205l-6.26-2.48L4.09,205,0,204.61V240.7l500,1.23Z"/><path class="cls-2" d="M500,176.71l-4.26-.5-.63,2.54-3.77-2.54-7.63,2.06-6-.79-3.57,6.61a13,13,0,0,0-2.34-.6c0-.21-.79-2.49-.79-2.49l1.18-2.05L468,174.21l-6.85,1.32-5.38-1-1.12,5.18-3.52,1.91-2.11-.1-2.15,4.65-6.36-7.92-17.31,2.64-2.06,13.3-26,1-18.39-.49V174.41h-4.5v-4.07H360.89v7.93h-5.48l.39,4.7s1.86,5.13,1.57,7.21A48.61,48.61,0,0,1,355.9,196l-26.36-5.08-.81-1.57-9.34,1.79-.12,1.68-1.5-1.12-2.73.71.39,1.51-9.32.44-.81-1.05-2.32.12-.78.88-.88-.83-1.57,0-.2.54-4.14.32,0,10.63L500,208.26Z"/><rect class="cls-3" width="500" height="229.69"/></g><g id="Layer_13" data-name="Layer 13"><polygon id="tarmac" class="cls-4" points="478.92 259.1 19.73 259.1 194.78 229.69 303.87 229.69 478.92 259.1"/><g id="centerline"><polygon id="centerline-2" data-name="centerline" class="cls-5" points="258.66 259.1 241.25 259.1 249.21 231.16 250.7 231.16 258.66 259.1"/><rect class="cls-4" x="235.79" y="232.9" width="28.33" height="1.26"/><rect class="cls-4" x="235.79" y="237.94" width="28.33" height="1.76"/><rect class="cls-4" x="235.83" y="249.28" width="28.33" height="4.77"/></g><g id="markings_left"><polygon id="td_z" class="cls-5" points="153.31 249.73 209.37 249.73 214.64 242.99 179.72 242.99 153.31 249.73"/><polygon class="cls-5" points="202.16 259.1 206.11 254.05 140.1 254.05 120.28 259.1 202.16 259.1"/><polygon class="cls-4" points="152.78 259.1 165.24 253.17 160.02 253.17 144.37 259.1 152.78 259.1"/><polygon class="cls-4" points="181.18 259.1 188.53 253.17 183.31 253.17 172.76 259.1 181.18 259.1"/></g><g id="markings_left-2" data-name="markings_left"><polygon id="td_z-2" data-name="td_z" class="cls-5" points="347.81 249.73 291.75 249.73 286.48 242.99 321.4 242.99 347.81 249.73"/><polygon class="cls-5" points="298.96 259.1 295.01 254.05 361.02 254.05 380.84 259.1 298.96 259.1"/><polygon class="cls-4" points="348.34 259.1 335.88 253.17 341.1 253.17 356.75 259.1 348.34 259.1"/><polygon class="cls-4" points="319.94 259.1 312.59 253.17 317.81 253.17 328.36 259.1 319.94 259.1"/></g><path class="cls-6" d="M0,259.1H19.73l175.05-29.41S73.22,227.6,50.52,227.6c-13.38,0-35-1-50.52-1.81Z"/><path class="cls-6" d="M500,227.47c-16.42-.74-46.77-1.92-59-1.17-17.08,1-137.17,3.39-137.17,3.39L478.92,259.1H500Z"/></g><g id="airplane"><g id="undercarriage"><polygon class="cls-7" points="267.83 190.64 269.41 193.87 269.88 193.7 268.15 190.2 267.83 190.64"/><path class="cls-7" d="M240.92,194.71h4v-1.16l-2.19-.25.31-1.29,6.51.36,4.15.25a2,2,0,0,1,.81.87,1.34,1.34,0,0,1,.2.94h6.41v.37l-6.61.19s-.36,1.18-1.13,1.21c-.2.92-.94,6.05-.94,6.05h-.59l.73-6s-1.16-.2-1.15-1.08v-1h-3.24a2.52,2.52,0,0,0,.08,1c.15.52,1.69,7.08,1.69,7.08h-.62l-1.45-6.35a2.18,2.18,0,0,1-1.76.39c-1-.22-1.2-.9-1.2-.9l-5.05-.11Z"/><path class="cls-7" d="M232.92,191.46s-.7,1.61-.91,2.2a10.83,10.83,0,0,0-.37,1.24l.37.07.37-1.18,1.88,0,1.76,2v-.7l-1.13-1.3,1.13,0v-.38h-3.58l.87-2Z"/><path class="cls-8" d="M215.28,205.3c.75,0,1-.4,1-1.13s0-6.38,0-6.38a1.6,1.6,0,0,0-1.56-1.54h-.09a1.59,1.59,0,0,0-1.62,1.6v1.9l-1.56-.06,0-2.43,1.3-.81a3.79,3.79,0,0,1,.26-1.68c.33-.48,11.42-12,11.42-12l-2-.07s-9.62,10.82-9.94,11.38-.61,1.06-.61,1.06l-.42,0L211,181.69h-2.09l.23,13.63a.62.62,0,0,0-.36.52c0,.36.18,2,.18,2l.35.16v1.8H208l0-1.87a1.59,1.59,0,0,0-3.18.05s0,5.88,0,6.38.16.92,1.12.93c-1,0-1.1.54-1.11.8l0,6.7a1.57,1.57,0,0,0,1.61,1.59h.4a1.6,1.6,0,0,0,1.57-1.6l0-1.79a2.46,2.46,0,0,0,1.14.52c.43,0,.24-1.17.24-1.17l.62,0v.93h.44v-.93h.89s0,1.18.44,1.19,1-1,1-1l.11,2.11a1.6,1.6,0,0,0,1.64,1.51H215a1.61,1.61,0,0,0,1.54-1.63s-.09-5.7-.13-6.29A1,1,0,0,0,215.28,205.3Zm-6.57,3.21h-.61s0-1.81,0-2.27a1,1,0,0,0-1.08-.93,1.07,1.07,0,0,0,1.15-1l-.06-2.11h.81a1.2,1.2,0,0,1,.34.81c0,.54.15,4.72.15,4.72Zm4.28-2.2c0,.54-.06,2-.06,2h-.55l-.5-.79v-4.59a2.37,2.37,0,0,1,.32-1H213s0,2,0,2.46.41.86,1.09.88A1.08,1.08,0,0,0,213,206.31Z"/><path class="cls-8" d="M297.06,203.26c0-.35-.5-.67-1-.68.52,0,.71-.35.73-.87s0-6.32,0-6.32a1.57,1.57,0,0,0-1.58-1.5h0a1.57,1.57,0,0,0-1.58,1.49l-.08,1.31-1.14,0s0-3.31,0-3.64-.32.12-.34-.5-.62-14-.62-14l-2.28.54.73,13.84-12-12.28-.88.49,11.52,11.79v1.64c0,.81,1.37.85,1.37.85v1.19l-1.48.06-.07-1.18a1.53,1.53,0,0,0-3.06.13s.15,5.91.17,6.59.47.84,1,.85a.85.85,0,0,0-.95.86c0,.57.32,6.39.32,6.39a1.71,1.71,0,0,0,3.41-.15l-.05-1.38a3.05,3.05,0,0,0,1.11.39c.44,0,.37-1.31.37-1.31h.47v1h1v-.93h.36s0,1.17.36,1.17a3.33,3.33,0,0,0,1.17-.6l.1,1.3a1.69,1.69,0,0,0,3.38-.21S297.1,203.61,297.06,203.26Zm-7.74,2.54h-.45s-.05-1.76-.06-2.14c0-.2-.17-.66-.87-.64a.86.86,0,0,0,.83-1l-.1-2.62h.53l.44.57.16,5.2Zm4.53-2.39,0,2.39h-.51l-.63-.75-.1-4.94.55-.79h.38s0,2.23.05,2.55.11.8.88.81A.62.62,0,0,0,293.85,203.41Z"/><path class="cls-8" d="M254.42,192.32s.85,1.4,1.31,1.5,1.14-.62,2.12-.55,4.69,2.71,4.92,2.83-.1,1,.23,1.54l.74,1.16h-.85l0,1.62a1.63,1.63,0,0,1,.68,1.14,9.32,9.32,0,0,1-.41,1.9h-.62v-1.69a1.68,1.68,0,0,0-1.67-1.66h0a1.69,1.69,0,0,0-1.71,1.72l.19,7.72A1.68,1.68,0,0,0,261,211.2h.11a1.69,1.69,0,0,0,1.69-1.74l-.05-1.65s.75.78,1.08.78.42-.22.43-.56,0-.62,0-.62l1.73,0s-.15,1.07.46,1.1.5-1,.5-1l.63,0v2a1.68,1.68,0,0,0,1.66,1.69h.15a1.68,1.68,0,0,0,1.7-1.75l-.28-8a1.69,1.69,0,0,0-1.69-1.63h-.05a1.69,1.69,0,0,0-1.69,1.63l-.05,1.81-1.31-.25a8.79,8.79,0,0,1-.29-2.3c0-1.39,1.21-2.8,1.23-4.15a2.26,2.26,0,0,0-1.18-1.86l-.06-1.19s1.21-1,1.17-1.79l-1.19-1.7L263.57,192l-.08,2.64-3.27-3.21Z"/><path class="cls-8" d="M241.18,200.9H241a1.67,1.67,0,0,0-1.67,1.67v1.28h-.78l-.51-1.35-.08-1.44,1-.16,0-1.26h-.93s.14-.59.27-1.3.26-1.66.26-1.66l6.78-4.43-4.26-.12L237.9,195v-2.89h-3.28l-.36.81,1.59.71,0,2.37s-.1,0-1.14,0,0,1.91,0,1.91l1.4,1.66V204h-1.4l.19,4.82h.56s.14.61.61.58.32-.8.32-.8l1.61-.08a.44.44,0,0,0,.39.59,2.16,2.16,0,0,0,1.25-.32v1.5a1.67,1.67,0,1,0,3.34,0l-.15-7.75A1.66,1.66,0,0,0,241.18,200.9Z"/><path class="cls-8" d="M232.92,200.9a1.75,1.75,0,0,0-1.75,1.74v3.21c0,1.6.13,3.33.23,4.54a1.75,1.75,0,0,0,1.74,1.59h.09a1.74,1.74,0,0,0,1.75-1.82l-.31-7.59A1.75,1.75,0,0,0,232.92,200.9Z"/></g><g id="jet_engines"><g id="engine_3"><ellipse class="cls-9" cx="337.55" cy="180.25" rx="10.5" ry="10.7"/><ellipse class="cls-10" cx="338.26" cy="181.4" rx="8.72" ry="8.78"/><ellipse class="cls-9" cx="339.05" cy="181.93" rx="5.06" ry="5.18"/><circle class="cls-10" cx="339.21" cy="182.88" r="3.22"/><path class="cls-11" d="M338.39,183c-4.27.28-8.4.38-10.89.42A10.47,10.47,0,0,0,348,181,35.06,35.06,0,0,1,338.39,183Z"/></g><g id="engine_4"><circle class="cls-9" cx="405.67" cy="171.4" r="10.59"/><ellipse class="cls-10" cx="406.78" cy="172.25" rx="8.74" ry="8.66"/><circle class="cls-9" cx="407.36" cy="172.36" r="4.92"/><circle class="cls-10" cx="407.84" cy="172.93" r="2.91"/><path class="cls-11" d="M407,173.05a118.39,118.39,0,0,1-11.9-.74,10.58,10.58,0,0,0,21,.46C413.68,172.92,410.38,173.06,407,173.05Z"/></g><g id="engine_2"><path class="cls-9" d="M169.71,178.19a10.53,10.53,0,1,1-6.78-2.66,10.51,10.51,0,0,1,6.78,2.66"/><path class="cls-10" d="M167.91,180.1a8.75,8.75,0,1,1-5.64-2.24,8.73,8.73,0,0,1,5.64,2.24"/><ellipse class="cls-9" cx="161.7" cy="187.18" rx="5.27" ry="5.36"/><ellipse class="cls-10" cx="161.39" cy="187.93" rx="3.07" ry="2.95"/><path class="cls-11" d="M173.15,186.85A82.82,82.82,0,0,1,161.08,188a32.74,32.74,0,0,1-8.86-1.3,10.5,10.5,0,0,0,20.93.15Z"/></g><g id="engine_1"><ellipse class="cls-9" cx="94.54" cy="181.18" rx="10.54" ry="10.35"/><ellipse class="cls-10" cx="93.8" cy="181.69" rx="8.93" ry="8.76"/><circle class="cls-9" cx="93.48" cy="182.47" r="5.62"/><circle class="cls-10" cx="93.03" cy="182.9" r="3.07"/><path class="cls-11" d="M105.06,181.42a63.3,63.3,0,0,1-12.47,1.38,53.28,53.28,0,0,1-8.55-.72,10.54,10.54,0,0,0,21-.66Z"/></g></g><g id="below_wing_stuff"><path class="cls-12" d="M301.32,190.43l-1.18,0L297,188v4.28C299.75,192.23,300.32,191.78,301.32,190.43Z"/><path class="cls-12" d="M199.94,193.67l4.41-3.4s3.79,5.34.26,5.18S199.94,193.67,199.94,193.67Z"/><path class="cls-13" d="M111.48,170.2a11.5,11.5,0,0,0-2.64,5.72,22.29,22.29,0,0,0,.74,7.73s3.42-.93,4.1-6,.74-7,.74-7Z"/><path class="cls-13" d="M139.85,172.25s-1.61,6.5-1.42,9.64a14.89,14.89,0,0,0,1.62,5.67,12.78,12.78,0,0,0,3.33-6.65c.52-4.75.85-8.84.58-8.66"/><path class="cls-13" d="M183.24,177.32s-.91,10.7-.78,13.83a10.73,10.73,0,0,0,.78,4.3,13.67,13.67,0,0,0,4.63-8.67c.52-5.42.46-9.92.46-9.92Z"/><path class="cls-13" d="M203.59,179s-1,2.53-.74,10,1.45,8.69,1.45,8.69,3.44-2,3.88-8.42S209,179,209,179Z"/><path class="cls-13" d="M291.73,178.27a27,27,0,0,0,1.22,8.56c1.47,5.08,2.65,7.88,3.62,7.95s1.86-.86,1-8.79-.88-9.09-.88-9.09Z"/><path class="cls-13" d="M312.66,173.77a17.9,17.9,0,0,0,1.08,9.44c2,5.28,3.81,7.53,4.55,7.68s1.07-2.94,0-9.79-1.42-8.56-1.42-8.56Z"/><path class="cls-13" d="M356.52,166.1a20.08,20.08,0,0,0,.72,6.65c1,4.44,1.69,6.4,3.52,7.5s1.63-4.3.72-9.06-1.24-6.07-1.24-6.07Z"/><path class="cls-13" d="M387.16,161.1a52.7,52.7,0,0,0,0,8.12c.39,2.78,1.27,3.67,3.47,5.43S392,161.1,392,161.1Z"/></g><g id="right_wing"><path id="slat" class="cls-14" d="M414.3,158.45S432,156,440.07,154.78s30.51-5,36.52-6a1,1,0,0,0,.69-1.52,5.66,5.66,0,0,1-.56-1.34c-.14-.7-.25-1.71-.25-1.71L414.7,156.45l-.4.61Z"/><polygon class="cls-15" points="403.41 169.52 403.87 167.92 400.75 159.46 403.57 158.92 406.28 158.45 407.11 168.95 407.76 169.95 406.37 170.34 403.41 169.52"/><polygon class="cls-16" points="407.29 158.93 407.68 167.09 408.68 167.7 407.76 169.95 407.11 168.95 406.28 158.45 407.29 158.93"/><g id="inner_flaps"><polygon class="cls-17" points="272.75 177.29 273.44 181.98 334.09 170.34 333.55 167.41 272.75 177.29"/><polygon class="cls-17" points="342.96 166.69 343.35 168.63 402.96 159.76 402.96 157.97 342.96 166.69"/></g><path id="main_wing" class="cls-18" d="M274.35,164.5l-.82,13.77s2.55,0,3.65,0,54.4-9.1,54.4-9.1l13.37-2s22.53-2.71,32.64-4.34,24.78-4.24,24.78-4.24l.29,1.4s1.67-.32,2.35-.48l2.28-.59.13-1.31,49.73-9a80.63,80.63,0,0,1,11.09-2.6c5.61-.85,14.15-1,14.61-1.24s1.3-4.44,2.22-7,1.88-5.46,2-6-.59-.71-.89,0-4.34,11-4.46,11.34-.25.18-.54.22-12,1.09-18.05,2.07c0,0-64.32,11.44-80.17,13,0,0-45.21,5.12-59,6-11.18.69-24.29,1.23-32.12,1.32A148.14,148.14,0,0,1,274.35,164.5Z"/><g id="details"><path class="cls-15" d="M338.44,179.36l-3.2-.56a23,23,0,0,0,.48-2.6c0-.38-.11-1.83-.23-3.19-.56-.2-1.45-1.16-1.83-1.28a11.72,11.72,0,0,1,1.28-1.55l4.18-.72s.18,6.36.48,6.72,1.73,1.57,1.73,1.57l-2.12,1.55Z"/><polygon class="cls-19" points="332.25 171.15 332.08 168.73 344.6 165.57 345.14 169.24 332.25 171.15"/><path class="cls-19" d="M406.7,157.18l.68,1.86s24.92-5.18,31.53-6.5,13.89-3.33,18.19-4l-.05-1.13s-16.82,3.43-24.6,4.89Z"/></g><path id="shadow" class="cls-20" d="M330,166.89c10.63-1.31,48.36-6,60.1-7.85,8.35-1.28,50.66-9.32,74.43-13.86l-1.4.22s-64.32,11.44-80.17,13c0,0-45.21,5.12-59,6-11.18.69-24.29,1.23-32.12,1.32a148.14,148.14,0,0,1-17.54-1.19l-.43,7.23C284.85,171.16,320.08,168.11,330,166.89Z"/><g id="flap_3"><g id="flap_connectors"><polygon class="cls-17" points="280.07 181.07 280.5 182.78 281.11 182.55 280.59 180.92 280.07 181.07"/><polygon class="cls-17" points="304.9 176.9 305.49 178.22 305.9 178.06 305.4 176.74 304.9 176.9"/><polygon class="cls-17" points="325.67 173.22 326.15 174.59 326.66 174.41 326.22 173.22 325.67 173.22"/></g><path class="cls-21" d="M275.4,180.26l.24,1.2a.63.63,0,0,0,.73.52c2.72-.44,13.72-2.24,17.93-2.91,4.42-.69,32.37-5.83,36.87-6.66a.63.63,0,0,0,.52-.73l-.19-1.27a.66.66,0,0,0-.76-.54l-54.82,9.63A.64.64,0,0,0,275.4,180.26Z"/><path class="cls-21" d="M274.88,184.44l2,7.45a1,1,0,0,0,1.1.7L333,183a1,1,0,0,0,.78-1.13l-1.53-7.74a1,1,0,0,0-1.12-.77l-55.51,9.9A1,1,0,0,0,274.88,184.44Z"/></g><g id="flap_4"><g id="flap_connectors-2" data-name="flap_connectors"><polygon class="cls-17" points="367.89 165.57 373.48 166.53 401.83 161.79 401.1 160.22 367.89 165.57"/><polygon class="cls-17" points="366.42 165.74 366.42 167.46 366.86 167.33 366.86 165.74 366.42 165.74"/><polygon class="cls-17" points="350.28 168.36 350.28 169.78 350.86 169.78 350.72 168.16 350.28 168.36"/></g><path class="cls-21" d="M346.53,170a.75.75,0,0,0-.63.86,27,27,0,0,0,.64,3.23,13.23,13.23,0,0,0,1.12,2.58.77.77,0,0,0,.81.38c5.14-1.07,46-9.23,50.48-9.84,1.72-.23,4.74-.57,4.89-1a29.43,29.43,0,0,0-1.31-4.62.73.73,0,0,0-.84-.5c-3.73.62-22.85,3.83-27.62,4.58Z"/><path class="cls-21" d="M345.45,168.13l.3.92a.5.5,0,0,0,.56.34c2.63-.45,17-2.87,24.78-3.91,8.58-1.15,18.05-2.79,21-3.26,2.42-.38,7.33-1.22,9-1.51a.5.5,0,0,0,.38-.67l-.19-.51a.49.49,0,0,0-.55-.32s-23.54,3.89-26.67,4.32l-28.23,3.94A.51.51,0,0,0,345.45,168.13Z"/></g></g><g id="left_wing"><path id="slats" class="cls-14" d="M24,158.67a10,10,0,0,0-1.46,1.86v1.33s20.28,2.65,31.58,3.83,31.4,2.94,31.4,2.94V166L31.8,158.67Z"/><g id="inner_flaps-2" data-name="inner_flaps"><polygon class="cls-17" points="226.48 183.11 224.08 183.11 168.22 175.92 167.98 172.79 226.48 179.68 226.48 183.11"/><polygon class="cls-17" points="155.42 174.67 155.42 172.74 97.86 168.09 97.86 169.53 155.42 174.67"/></g><g id="flap_2"><g id="flap_connectors-3" data-name="flap_connectors"><polygon class="cls-17" points="174.47 177.41 174.02 179.66 174.47 179.75 174.97 177.47 174.47 177.41"/><polygon class="cls-17" points="194.83 180.15 194.66 181.92 195.06 181.92 195.19 180.06 194.83 180.15"/><rect class="cls-17" x="219.95" y="182.69" width="0.46" height="1.98"/></g><path class="cls-21" d="M168.59,179.35l-1.39,8.31s19.63,2.38,29.41,3.42,28,3.07,28,3.07a27.94,27.94,0,0,0,1.18-6.26c.06-2.74.24-2.8-.16-3s-35.84-3.79-35.84-3.79l-20.28-2.47A.87.87,0,0,0,168.59,179.35Z"/><path class="cls-21" d="M169.1,175.11c-.27.29-.22,1.84-.22,1.84s19.19,2.65,27,3.5,28.4,3.11,28.82,3,.75-2.87.75-2.87-24-2-29.22-2.47c-5-.46-25.82-3.25-26.34-3.27A.89.89,0,0,0,169.1,175.11Z"/></g><g id="flap_1"><g id="connectors"><polygon class="cls-17" points="149.69 173.95 149.47 175.75 149.92 175.84 150.11 173.95 149.69 173.95"/><polygon class="cls-17" points="133.44 172.74 133.27 174.26 133.72 174.31 133.82 172.81 133.44 172.74"/><polygon class="cls-17" points="131.62 172.53 125.78 173.53 98.53 170.9 98.88 169.43 131.62 172.53"/></g><path class="cls-21" d="M98.94,168.65c-.46.06-.49.74-.3,1.06s17.5,1.69,21.38,2.07c4.23.42,33.9,2.8,34.26,2.87s.59-1.15.13-1.15-36.09-3.09-39.71-3.39S99.4,168.6,98.94,168.65Z"/><path class="cls-21" d="M98.85,170.6c-.78,0-.56,0-.91.69s-1.39,3.21-1.6,3.73,0,1,.86,1.09,54.46,6.53,55,6.61a1,1,0,0,0,1.13-.66c.1-.35.75-2.28.9-2.94s.33-2.59.36-3,0-.37-.64-.45-21.23-1.75-29.5-2.48S98.85,170.6,98.85,170.6Z"/></g><path class="cls-18" d="M226.72,179.93c-2.15,0-55.22-5.63-58.69-6.07s-5.87-.49-12.62-.78-57.56-5-58-5.09-4.07-1-4.07-1-47.2-5.38-50.24-5.87-2.83-1-10-1.67-16.19-.73-16.19-.73S12,145.79,12.29,145.59s.81.15,1.1.85,5.21,10.35,5.21,10.35,8.7.35,15.41,1,48.28,6.41,68,7.49c17.86,1,31.9,2.39,52.83,2.88s49.31.59,59-.59,12.91-2.44,12.91-2.44Z"/><g id="details-2" data-name="details"><path class="cls-15" d="M160.3,175.14a40.27,40.27,0,0,1,.37,4.94,15.36,15.36,0,0,1-.93,3.49l1.65,1.33.76.11,2.67-1.58s-.44-2.62-.46-3.24,1-4.81,1-4.81L162.56,174Z"/><polygon class="cls-19" points="155.46 171.38 155.33 174.71 168.5 175.82 168.5 173.9 155.46 171.38"/><polygon class="cls-19" points="92.9 166.75 94.05 168.78 97.84 169.1 98.03 167.11 92.9 166.75"/><path class="cls-19" d="M92.85,167.93v-1.18S68.78,163.92,63.11,163s-19.79-3-20-3-.2,1.05-.2,1.05,17.61,2.87,25,4S92.85,167.93,92.85,167.93Z"/><polygon class="cls-22" points="93.52 179.6 92.7 176.93 92.9 166.75 94.05 168.78 93.52 179.6"/><path class="cls-15" d="M95.62,177.32s0-3.16,0-3.52,2.22-4.7,2.22-4.7l-3.79-.32-.53,10.82Z"/></g><path id="shadow-2" data-name="shadow" class="cls-20" d="M154.82,168.19c-20.93-.49-35-1.91-52.83-2.88-14.29-.78-40.08-4-55.73-6,14.19,2.11,39.95,5.87,47.54,6.41,10.66.75,57.05,4.8,79.35,5.91,23.62,1.17,48.84,1.82,53.57,1.93v-8.42s-3.23,1.27-12.91,2.44S175.76,168.68,154.82,168.19Z"/></g><g id="fuselage"><path class="cls-23" d="M225.76,155.73V164s-.39-.4-.59,2a50.59,50.59,0,0,0,0,8.54,10.43,10.43,0,0,0,1,3.29v7.24a22,22,0,0,0,3,4.14,11.29,11.29,0,0,0,6,2.88c8.93.78,11.92,1.23,14.91,1.17s12.67-1.21,14.57-1.63,4.46-1,5.44-1.86,2.51-1.79,3.36-3.42a9,9,0,0,0,1-2.65s-.61-5.75-.61-6a26.62,26.62,0,0,0,1.16-2.56c.07-.55-.16-7.37-.26-8.8a96,96,0,0,0-1.6-9.59c-.71-3.19-2.34-10.53-3.29-12.1s-8.51-15.55-10.27-17.44-6-4.37-12.2-4a19,19,0,0,0-11.93,6c-.65,1-9,19.5-9.33,22.17A30,30,0,0,0,225.76,155.73Z"/><path class="cls-24" d="M241.13,162.47s.74-10,9.69-10.42,10.84,10.42,10.84,10.42Z"/><g id="shadows"><path class="cls-11" d="M229.12,189.25a11.29,11.29,0,0,0,6,2.88c8.93.78,11.92,1.23,14.91,1.17s12.67-1.21,14.57-1.63,4.46-1,5.44-1.86,2.51-1.79,3.36-3.42a9,9,0,0,0,1-2.65s-.48-4.54-.58-5.68l-.2-.23s.1-4.28.11-4.66,0-.35-.27-.64-3-4.34-4.3-4.41a13.25,13.25,0,0,1-2.13-.27l-6-5.38H241.13l-5.42,4.87-7.83,6.82v5l-1.71,1.24v4.72A22,22,0,0,0,229.12,189.25Z"/><path class="cls-25" d="M237.58,165.66l-2-.55-10.52,8.49c0,.36.06.69.1,1a10.43,10.43,0,0,0,1,3.29v2.41l.08.05,1.63-1.18v-5l7.83-6.82Z"/><path class="cls-25" d="M266.12,167.08l.86.77a13.25,13.25,0,0,0,2.13.27c1.34.07,4,4.12,4.3,4.41s.28.26.27.64-.11,4.66-.11,4.66l.2.23c0-.15,0-.25,0-.27a26.62,26.62,0,0,0,1.16-2.56c0-.35,0-3.2-.12-5.62l-7.48-5.24Z"/><path class="cls-26" d="M250.82,153.84s3.28,1.24,3.44,4,0,6.34,0,8.57-2.8,4.34-2.8,4.34-3.13-2.28-3.23-4.05-.27-6.94-.3-9S250.82,153.84,250.82,153.84Z"/><circle class="cls-26" cx="251.13" cy="163.67" r="2.81"/></g><g id="horizontal_stabilizer_holes"><path class="cls-27" d="M242.42,166.17s0-3.59-.71-4.93-1.05-2-2.58-2-5.09,2.09-5,6.2,1.27,7.5,3.59,7.47a5.39,5.39,0,0,0,4.72-4.7Z"/><path class="cls-27" d="M264,158.7a2.62,2.62,0,0,0-2.81.25,2.69,2.69,0,0,0-1,1.63,39.67,39.67,0,0,0-.22,5.82c.1.62.15,3.38,2.55,4.6s3.32,1.18,4.47-1a9.42,9.42,0,0,0,.37-6.93,7.64,7.64,0,0,0-2.57-3.88A7.36,7.36,0,0,0,264,158.7Z"/></g><path class="cls-28" d="M233.29,140.21a1.54,1.54,0,0,0,2.26,1.81c3.11-1.87,7.93-4.26,12.84-4.65,4.08-.32,9.57,1.39,12.2,2.53a1.54,1.54,0,0,0,1.91-2.23c-2.8-4.58-4.65-11.68-15-11.28C240.31,126.66,235,135.18,233.29,140.21Z"/></g><g id="vertical_stabilizer"><path class="cls-9" d="M247.8,80.54s-.58,10-.58,26.61c0,15.65-2.45,44.9-2.45,44.9a12.56,12.56,0,0,0,6.1,1.79c3-.13,6-2.74,6-2.74A412.53,412.53,0,0,1,252,107.21c-.62-14.54-1.55-26.67-1.55-26.67Z"/><path class="cls-20" d="M250.82,153.84l-1.71-73.3H247.8s-.58,10-.58,26.61c0,15.65-2.45,44.9-2.45,44.9A12.6,12.6,0,0,0,250.82,153.84Z"/></g><g id="horizontal_stabilizers"><g id="right_stabilizer"><path class="cls-18" d="M255.37,165.29a24.23,24.23,0,0,0,5.22-1.57c2-1,3.62-1.69,3.62-1.69s5.9-.17,8.9-.46S292,159,300.43,158.08s33-3.91,33.75-4,1.28.23,1.31.42a1.38,1.38,0,0,1-1.08,1.08c-.75.16-35.54,6.55-44.54,7.83s-29.25,5.23-29.25,5.23a15.4,15.4,0,0,0-2.2-2A17.78,17.78,0,0,0,255.37,165.29Z"/><path class="cls-11" d="M260.62,168.63s20.25-4,29.25-5.23,43.79-7.67,44.54-7.83a1.44,1.44,0,0,0,.9-.63l-12.74,1.82-.08-.55-.14.58-39.82,5.36.64-1-1.1.68L256,165.17l-.6.12a17.78,17.78,0,0,1,3.05,1.38A15.4,15.4,0,0,1,260.62,168.63Z"/></g><g id="left_stabilizer"><path class="cls-18" d="M246.83,165.74a13,13,0,0,0-2.89,2,16.18,16.18,0,0,0-2.05,2.25,135.43,135.43,0,0,0-22.31-3.72c-13.69-1.27-51-5.43-51.75-5.43a.78.78,0,0,1-.86-.88c0-.24.27-.49,1.16-.58s26.16,1.51,38,2.1,35.61,1.27,35.61,1.27a12.74,12.74,0,0,0,1.52,1.52A17.55,17.55,0,0,0,246.83,165.74Z"/><path class="cls-11" d="M167.83,160.8c.78,0,38.06,4.16,51.75,5.43A135.43,135.43,0,0,1,241.89,170a16.18,16.18,0,0,1,2.05-2.25,13,13,0,0,1,2.89-2s-.57-.18-1.26-.43l-25.5-1.77-1.29-.67,1,1.11-39.74-2.69-.09-.68-.19.66L167,160.21A.78.78,0,0,0,167.83,160.8Z"/></g></g></g></svg>