<svg id="Layer_1" data-name="Layer 1" xmlns="http://www.w3.org/2000/svg" viewBox="0 0 98.37 139.59"><defs><style>.cls-1{fill:#050505;}</style></defs><path class="cls-1" d="M95,103a1.89,1.89,0,0,1-.75.14c-2.85,0-7.28-5.09-10.18-5.09a2.09,2.09,0,0,0-.43,0c-3,.6-5.4,8.87-8.62,8.87-2.13,0-3.88-3.61-5.71-6.23L87.7,145.17l9.89-12.3,15.7,1.7-15.75-38C97,99.35,96.62,102.32,95,103Z" transform="translate(-25.81 -5.58)"/><path class="cls-1" d="M75,107c-3.22,0-5.58-8.27-8.62-8.87a2.09,2.09,0,0,0-.43,0h0c-2.9,0-7.33,5.09-10.18,5.09A1.89,1.89,0,0,1,55,103c-1.64-.68-2.06-3.65-2.56-6.44l-15.75,38L52.34,133l10,12.15,18.41-44.44C78.88,103.35,77.13,107,75,107Z" transform="translate(-25.81 -5.58)"/><path class="cls-1" d="M124.19,54.76c0-3-7.8-5.26-8.36-8.12s5.75-8,4.62-10.71-9.19-1.83-10.84-4.29,2.27-9.56.17-11.66a2.77,2.77,0,0,0-2-.63c-2.29,0-5.58,1.22-7.87,1.22a3.14,3.14,0,0,1-1.77-.42c-2.45-1.64-1.53-9.69-4.29-10.84a1.87,1.87,0,0,0-.71-.13c-2.68,0-6.86,4.79-9.59,4.79a2.6,2.6,0,0,1-.4,0C80.26,13.37,78,5.58,75,5.58s-5.26,7.79-8.13,8.36a2.6,2.6,0,0,1-.4,0c-2.73,0-6.91-4.79-9.59-4.79a1.87,1.87,0,0,0-.71.13c-2.76,1.15-1.83,9.2-4.29,10.84a3.18,3.18,0,0,1-1.77.42c-2.29,0-5.58-1.22-7.87-1.22a2.81,2.81,0,0,0-2,.63c-2.1,2.1,1.83,9.18.17,11.66s-9.7,1.53-10.84,4.29,5.21,7.75,4.62,10.71-8.36,5.09-8.36,8.12,7.8,5.26,8.36,8.13-5.75,8-4.62,10.7,9.19,1.84,10.84,4.29-2.27,9.56-.17,11.66a2.73,2.73,0,0,0,2,.64c2.29,0,5.58-1.23,7.87-1.23a3.23,3.23,0,0,1,1.77.42c2.45,1.65,1.53,9.7,4.29,10.84a1.7,1.7,0,0,0,.71.14c2.68,0,6.86-4.8,9.59-4.8a1.75,1.75,0,0,1,.4,0C69.74,96.16,72,104,75,104s5.26-7.79,8.13-8.36a1.75,1.75,0,0,1,.4,0c2.73,0,6.91,4.8,9.59,4.8a1.7,1.7,0,0,0,.71-.14c2.76-1.14,1.83-9.19,4.29-10.84A3.18,3.18,0,0,1,99.89,89c2.29,0,5.58,1.23,7.87,1.23a2.76,2.76,0,0,0,2-.64c2.1-2.1-1.83-9.18-.17-11.66s9.7-1.52,10.84-4.29-5.21-7.75-4.62-10.7S124.19,57.79,124.19,54.76ZM75,87a32.24,32.24,0,1,1,32.24-32.24A32.24,32.24,0,0,1,75,87Z" transform="translate(-25.81 -5.58)"/><circle class="cls-1" cx="49.19" cy="49.19" r="29.35"/></svg>