<svg xmlns="http://www.w3.org/2000/svg" viewBox="0 0 500 240"><defs><style>.cls-1{fill:#6d6d6d;}.cls-2{fill:#545454;}.cls-3{fill:#1e1e1e;}.cls-4{fill:#c60;}.cls-5{fill:#ff0;}.cls-6{fill:#464c51;}.cls-7{fill:#7a7a7a;}.cls-8{fill:#404040;}.cls-9{fill:#525659;}.cls-10{fill:#636a6f;}.cls-11{fill:#a3a3a3;}.cls-12{fill:#565d63;}.cls-13{fill:#c96;}.cls-14{fill:#5e646b;}.cls-15{fill:#4a4d54;}.cls-16{fill:#545a5c;}.cls-17{opacity:0.8;}.cls-18{fill:#adadad;}.cls-19{fill:#c7c7c7;}</style></defs><g id="engine"><polygon id="nozzle_lower_1" class="cls-1" points="210.05 173.67 218.65 177.36 227.41 175.11 231.61 166.34 231.3 160.03 236.85 161.46 240.17 166.71 241.45 174.03 240.66 178.53 238.46 179.15 236.6 183.38 234.01 183.38 232.45 186.85 228.78 186.55 226.43 188.8 222.96 187.09 221 188.07 217.74 186.2 215.85 185.9 211.28 182.74 210.05 173.67"/><g id="nozzle_decals"><polygon class="cls-2" points="216.84 186.06 214.45 176.48 212.1 175.25 213.77 184.47 215.85 185.9 216.84 186.06"/><polygon class="cls-2" points="221 188.07 221.98 187.58 218.53 178.19 216.4 178 219.36 187.13 221 188.07"/><polygon class="cls-2" points="226.43 188.8 227.87 187.42 223.79 178.3 221.13 178.76 225.34 188.27 226.43 188.8"/><polygon class="cls-2" points="230.74 186.71 232.45 186.85 233.34 184.87 228.08 176.38 225.75 178 230.74 186.71"/><polygon class="cls-2" points="236.6 183.38 237.6 181.11 231.44 173.12 229.58 175.25 235.87 183.38 236.6 183.38"/><polygon class="cls-2" points="239.39 178.89 240.87 177.37 241 176.59 232.89 169 232.54 170.93 239.39 178.89 239.39 178.89"/><polygon class="cls-2" points="233.25 166.08 240.39 173.3 240.55 168.86 232.91 163.34 233.25 166.08"/></g><ellipse class="cls-3" cx="220.71" cy="166.84" rx="12.88" ry="12.31"/><ellipse class="cls-4" cx="219.86" cy="165.68" rx="12.88" ry="12.31"/><ellipse class="cls-5" cx="218.42" cy="163.74" rx="12.88" ry="12.31"/><path id="engine_nozzle_outer" class="cls-6" d="M221,188.07l-3.08-2.35h-2.06l-2.78-3.91a9.22,9.22,0,0,1-1.57-4.4c0-2.25.34-6,.34-6a5.69,5.69,0,0,0,1.37-1.69c.39-.88,1.23-3,1.23-3l2.49-1.53,1.91-2.69a13.46,13.46,0,0,0,3.86-.69,21.44,21.44,0,0,0,2.64-1.51,5.75,5.75,0,0,0,3.28.68,11.18,11.18,0,0,0,2.4-.39l1.61,1.62,2.84.78,1.22,1.86,1.81,1.61.29,2.25,1.23,2.2-.49,2.59.49,4.94,4.35-1.61-3.72-20.44s-5.51-12.27-16.28-11.74-17.49,4-20.79,8.07c-.08.71-.39,22.94-.39,22.94l4.35,7.38a29.22,29.22,0,0,0,4.79,2C214.89,185.82,216.55,186.46,221,188.07Z"/><path id="engine_nozzle_upper" class="cls-7" d="M214.32,148.66v-1.79l1.82,1.24.46-2,1.79,1.29.33-1.88,1.46,1.54.72-1.77,1.5,1.6.85-1.6,1.43,1.77.85-1.77,1,1.7,1-.92,1.21,1.6.71-1.17,1.44,2,.58-1.39,1,2.44.62-1,1,1.8,1-.39.66,1.46,1,.2.13,1.37H238v1.43h1.08l.16,1.77,1,.42,0,1.36,2.09-6.64-5.48-12s-22.37-4.37-23-4.4-10.66,2.54-10.66,2.54l-3.2,9.2,3.13,8.77,1.4-.3-.06-2.25,1.43.75-.44-1.94,2,.77-.65-1.86,1.76.43-.13-1.73,2,.71-.06-1.89,2,1,.12-1.63Z"/></g><g id="fuselage_dark"><path id="rear_right" class="cls-8" d="M238.17,179.71v-.59l2.15-1.47V175.4a26.4,26.4,0,0,0,.49-4.64c.2-4.16.34-5.92.34-5.92s6.15,12.08,8.85,15.7S261.79,196,261.79,196a22.3,22.3,0,0,0-3-2.54c-.54-.15-2.84.39-4.6-.54S238.17,179.71,238.17,179.71Z"/><path id="front_left" class="cls-8" d="M118.28,19.89l13.11,22A17,17,0,0,1,133,46.7c.06,1.23,1,2.21-2,1.69S123.76,47,123.76,47,120,35.52,119.2,28.83C118.41,22.57,118.28,19.89,118.28,19.89Z"/><path id="inlet_left" class="cls-8" d="M114.38,53.87l14.32,26c.19.3.85,1.4.41,2.15s-1.3.71-1.83.73c-3.45.13-10.3,0-10.3,0Z"/></g><g id="fuselage"><polygon class="cls-9" points="345.56 179.48 339.04 170.15 343.22 169.3 345.56 179.48"/><polygon class="cls-9" points="158.13 134.22 159.45 142.02 167.52 141.51 162.17 132.7 158.13 134.22"/><path id="main_bodfy" class="cls-10" d="M161.13,136.17,175.61,156l30.13,14.22a10.12,10.12,0,0,1-.46-5.61,13.51,13.51,0,0,0-.06-7.37c-.72-2.61-2.94-12.91-2.94-12.91l2.48-2.68,5-.45,3.79-3.22,5,.84,2.89-1,4.5,2.15,3.52.1,3.77,2.69,3.08,1.66,4.35,15.12.44,5.33,3.47,6.58a52.42,52.42,0,0,0,3.4,6.06,68.07,68.07,0,0,0,5.15,7.25l23.4-2.19L275.29,173s26.71,1.69,34.41,2.61,34.56,4.85,34.56,4.85L341.39,171l4.18,8.48,13,1.82L350,168.78l-120.2-64.5L216.89,83.93,193.71,64.66s-.79-.29-4.5-5.77S183,50.15,179.72,45.2a44.06,44.06,0,0,1-5.29-11.42s-4.89-7.66-11.05-10.11S138.14,16,138.14,16s-9.78-4-15.75-2.16-4.11,6.1-4.11,6.1L130.86,41s3.82,7.85,1.28,7.54c-1.21-.14-7.37-1.51-10.89-1.87s-5.12-.68-5.12-.68a3.89,3.89,0,0,0-3.39.52l-1.57,1.17,3.21,6.2,13,23.57s3.44,5.26-.08,5.32-76.6,1.08-76.6,1.08-4.3.34-4.74.54.1.44,2.45.73S51,85,52.1,86.87a13.67,13.67,0,0,0,2.11,2.45l.78,0,3.23,4.06.88,2.83,15.06,6.07.59,1.47,88.32,40Z"/><g id="decals"><polyline class="cls-11" points="204.83 104.94 208.22 104.94 212.1 106.83 213.56 109.44 210.08 109.44 205.9 107.58"/><path id="decal" class="cls-11" d="M186.17,80.93l3-4.17,3.72,2.09H197L204,85.67a62.3,62.3,0,0,0-8.9-3.2A53.82,53.82,0,0,0,186.17,80.93Z"/><path class="cls-11" d="M168.86,57.13l12.75,9.26,1.79-1L187,67.17l3.22.13,3.07,2.16V64.53l-3.08-4.08a23.07,23.07,0,0,0-9.47-3.91C175.09,55.63,170.59,56.32,168.86,57.13Z"/></g></g><g id="cockpit"><path class="cls-12" d="M138.77,16.17l-1.67-.55a10,10,0,0,0-3.52,2.05c-1,1.18-2.3,2.2-2.45,6.85l.3,4.55,21.84,8.23a15.18,15.18,0,0,1,5-3.55,12.8,12.8,0,0,1,5.91-.7c1.21,0,6.13,1.79,6.13,1.79a3,3,0,0,1,2.94.2,9.55,9.55,0,0,1,2.11,1.55l-1-2.86L138.77,16.17"/><path class="cls-13" d="M134.65,26.48l19.89,6.85s3.92-3.2,8.35-2.42a22.57,22.57,0,0,1,6.52,2,7.86,7.86,0,0,1,3.92.46,8.42,8.42,0,0,0,1.1.45s-6.78-15.19-11.47-18-7.11-5.41-16.31-2.21-9.78,3.65-9.78,3.65-2.15,2-2.22,4.17S134.65,26.48,134.65,26.48Z"/></g><g id="elevators"><g id="elevator_left"><path id="main" class="cls-14" d="M167.49,139.4l8.9,14.28s24.13,9.92,25,10.37a12.21,12.21,0,0,1,4.8,7.34l1,4.4,2.34,10.76L139,153.49l-9.19-17.12Z"/><polygon class="cls-7" points="139.02 153.49 209.55 186.55 208.56 182.02 135.47 146.87 139.02 153.49"/></g><g id="elevator_right"><path class="cls-14" d="M266.65,203l66.65,5.61-9.91-17.22-49.76-19.93-4.43,3.17,4.43,6.52L252,177.65c-2.24-.39-2.4,2.39-.42,5Z"/><polygon class="cls-7" points="266.65 202.96 333.3 208.56 330.57 203.81 262.6 197.5 266.65 202.96"/></g></g><g id="left_rudder"><path id="base" class="cls-15" d="M188.87,147.05s1.66,7-.35,10.84a61.8,61.8,0,0,1-7.63-4.06c-3.37-2.2-12.32-14.82-12.32-14.82a52.21,52.21,0,0,1-4.31-16.63l4.31,2.58Z"/><path id="outer" class="cls-16" d="M188,151.43s-8.29-3.6-14.22-15c-5.08-9.78-5.21-11.47-5.21-11.47l17.59-35.31a.31.31,0,0,1,.56,0c.38,1,1.49,3,4.54,7.38a79.45,79.45,0,0,0,5.16,6.85,2.36,2.36,0,0,1,.58,2Z"/><path id="rear" class="cls-15" d="M196.42,103.89a69.55,69.55,0,0,1-4.4-5.76l-11.56,47.61a27.17,27.17,0,0,0,7.54,5.69l9-45.49A2.36,2.36,0,0,0,196.42,103.89Z"/><path id="front" class="cls-12" d="M188.87,93.49a25.41,25.41,0,0,1-2.15-3.83.31.31,0,0,0-.56,0L168.57,125a18.4,18.4,0,0,0,1.61,4.17Z"/></g><g id="smoke_right" class="cls-17"><path id="right_wing_front" class="cls-18" d="M289,136.3l-6.81-4.23c-.93,0-2.11,0-3.66,0h-3.06c-.68,0-1.65,0-2.81,0-3.26-.1-12.19.59-20.68-1.83,4.62,3.69,13.82,10.65,18.3,11.17C276.43,142.11,294,139.43,289,136.3Z"/><path id="right_wing_front-2" data-name="right_wing_front" class="cls-19" d="M197.88,68.88s11,8.48,13,11.48,7.83,15.13,14.09,23.09,9.91,14.6,15,20c9.67,10.17,27.71,8.5,32.67,8.65,1.16,0,2.13,0,2.81,0h3.06c6.55,0,6.82-.23,7.24-.35,1.83-.52-1.82-10.7-7.43-15s-12.65-8.35-18.52-6.91-6.26,2-6.26,2a9.81,9.81,0,0,0-5.74-4.56,41,41,0,0,0-9.52-1.44l-.58-4.43s-2.69-3.65-3-7.18.13-3.39-3.78-6.26-6.65-4.69-11.35-3.52,3.52-3,.26-3.52-7.56-5-11.21-6.39A115.49,115.49,0,0,1,197.88,68.88Z"/><path id="contrail_right" class="cls-19" d="M348.53,168s.59,6.07,17.22,14.48a311.3,311.3,0,0,0,28.57,12.86,59.45,59.45,0,0,1,14.28,5.73c7.24,4.1,21.52,9.19,30.52,10.56s14.67,1.57,20,5.28,7.82,7.05,12.52,5.87,12.67,3.64,16,1.57c1-.59-2.93-5.87-7.43-8.81s-6.85.79-13.89-1.56-3.76-7-10.37-8.81c-13.11-3.51-23.87-4-34.24-8.73a120.35,120.35,0,0,1-21.33-11.81c-8-5.28-10.56-10.17-26.41-13.3S348.53,168,348.53,168Z"/></g><g id="right_rudder"><path id="outer-2" data-name="outer" class="cls-16" d="M250.67,148l58.24-24.52s2.22,4.17,4.76,8.21,4.9,7.57,4.9,7.57l-49.64,35.54-3.45,4.11s-9.46-7.76-10.83-14S250.67,148,250.67,148Z"/><path id="rear-2" data-name="rear" class="cls-15" d="M318.57,139.24s-1.93-2.9-4.19-6.45L265,164.84l-.66,2.25,4.9,7.5Z"/><path id="bottom" class="cls-12" d="M268.86,174.87c-3.45-5.64-10.06-16.51-11.21-18.8s-2.8-6.92-3.7-9.47L250.67,148s2.61,10.56,4,16.86,10.83,14,10.83,14Z"/></g><g id="smoke_left" class="cls-17"><path id="contrail_left" class="cls-18" d="M56.36,87.79a5.59,5.59,0,0,1,3-1.43c.58-.12,1.11-.22,1.61-.3-.47-.23-1-.48-1.51-.76A16.47,16.47,0,0,0,52,83.22s-.91,1.89-.32,2.15,2.73-.14,3.84,2.74a6.49,6.49,0,0,0,.29.59A1.72,1.72,0,0,1,56.36,87.79Z"/><g id="left_wing_front"><path class="cls-18" d="M127.74,58.2c2,3.28,2.84,4.06,7.83,6,.94.37,1.75.72,2.46,1.07-1.87-2.26-4.55-5.41-7.16-8.16a21.61,21.61,0,0,0-8.7-5.26A29.56,29.56,0,0,1,127.74,58.2Z"/><path class="cls-18" d="M149.91,76.43a36.23,36.23,0,0,0-4.61-4.12c2.18,3.72,5.2,10.21,5.43,13.62.29,4.31,1,13.8-4.8,14.68S132,96.89,128.72,94l0,0a16,16,0,0,0,10,9.36c9.26,3,14.21-1.43,15.91-4.56S158.23,85,149.91,76.43Z"/></g><path id="contrail_left-2" data-name="contrail_left" class="cls-19" d="M59.36,86.36c4.56-.91,6.52-.91,9.91,0s4.31,3,4.31,3,8.47.91,11.87,1.56a47.25,47.25,0,0,1,9.65,3.26c2.61,1.18,5.61,1,11.61,5.87s9.78,5.22,13.17,6.27,2.09,2.08,8.61,3.13,8.48,2.34,12.52,4.82,11.61,2.87,13.31,3.91,7.69,6.4,11.47,8c0,0,4.83,2.48,16.18,2.35s8.37,8.57,18.65,13.83c5.87,3,6.13,1.43,10.56,3.52s8.61,7.43,15.79,9.91,10.43.39,16.56,4.43,6.26,10.18,10.31,12.66,7.56.26,13,4,4.44,5.61,9.65,7.17,9.26-.78,11.87,6.27a89.8,89.8,0,0,1,4.37,18c0,1.36-5.87-12.33-7.24-15.27s-3.23-1.46-8.12-3.52-5.19-5.37-11-6.64-9.09-.4-13.88-4,.78-8.8-10.37-13.5-10.28-4.6-17.71-5.48-2.42-1.86-8.9-4.3c-10.37-3.92-8-1.76-16.14-5s-7.83-7.89-14.22-10.76.39.39-12.52-1.7-9.79-4.74-15.39-6.09-7.31-.82-16.57-5.78-13.57-1-21.91-7.56-8-4-14.87-6.92-10.18-3.26-11.74-4.43-5-2.09-10.7-4.83S66.92,95.88,66.92,95s-3.78-.26-3.78-.26a2.55,2.55,0,0,0-1.69-3.26c-2.48-.79.13,1.82-2.61.78S55,89,56.36,87.79A5.59,5.59,0,0,1,59.36,86.36Z"/><path id="left_wing_front-2" data-name="left_wing_front" class="cls-19" d="M120.65,58.79a58.44,58.44,0,0,0-5.48-7.29s-4.11-3.82-2.89-5,3.77,1,7,3.13a31,31,0,0,1,8.51,8.61c2,3.28,2.84,4.06,7.83,6s6.35,3.49,8.25,5.83,6.61,11.58,6.91,15.88,1,13.8-4.8,14.68S132,96.89,128.72,94s-3.92-3.82-5.09-2.64.49,3.61-3.81,2.64-7.34-5.38-9.79-6.17-14.67.3-18-.58-5.57-3.62-7.33-4-6.27-.79-6.27-.79l36.25-.58s1-7.73,5.62-9,6.41-1.76,8-2.3-4-4.11-5.78-7.73S120.65,58.79,120.65,58.79Z"/></g></svg>