<svg xmlns="http://www.w3.org/2000/svg" xmlns:xlink="http://www.w3.org/1999/xlink" viewBox="0 0 1006 403"><defs><style>.cls-1{fill:#d3ccbc;}.cls-2{fill:#b2ac9e;}.cls-3{fill:#032c4e;}.cls-4{fill:#d59a4f;}.cls-5{fill:#2b4760;}.cls-6{fill:#223d5a;}.cls-7{opacity:0.3;}.cls-8{fill:#ddd5c3;}.cls-9{fill:url(#linear-gradient);}.cls-10{fill:#999;}.cls-11{fill:#1e2644;}.cls-12{fill:#2c2c38;}.cls-13,.cls-14,.cls-15{fill:none;stroke-miterlimit:10;}.cls-13{stroke:#26296b;}.cls-14{stroke:#b2ac9e;stroke-width:0.75px;}.cls-15{stroke:#bfb8aa;}.cls-16{fill:#2b2f33;}</style><linearGradient id="linear-gradient" x1="174.3" y1="229.85" x2="174.3" y2="223.12" gradientUnits="userSpaceOnUse"><stop offset="0.28" stop-color="#ccc5b6"/><stop offset="0.83" stop-color="#ddd5c3"/></linearGradient></defs><g id="right_wing"><path class="cls-1" d="M569.78,123.48s15.45.52,15.62-.65-10.53-3.26-10.53-3.26Z"/><path class="cls-1" d="M553.35,142.13s15.78.65,18.91-1.43-8.33-3.91-13.43-4S553.35,142.13,553.35,142.13Z"/><path class="cls-1" d="M537.79,161s10.31.88,14.81,0,6.45-2.06,6.26-2.94-14.77-3.13-14.77-3.13Z"/><path id="wing" class="cls-1" d="M433.35,168.43l158.08-98.3,40.9-40.7h9.91L619.42,68.56s1,3,.06,4.31-4.44,1-5.35,2.61-77.38,96.91-77.38,96.91Z"/><path id="aileron" class="cls-2" d="M595.22,84.87,564,118.13h16.17c10.3-12.88,20.14-25.2,26.55-33.26Z"/><path id="flap" class="cls-2" d="M536.75,172.39s22.66-28.26,43.46-54.26h-8.73l-51.79,53.61Z"/><polygon id="blue_trim" class="cls-3" points="593.83 71.13 628.87 35.3 626.43 35.3 591.43 70.13 433.35 168.43 441.55 168.74 593.83 71.13"/><path class="cls-4" d="M640.77,32h-4.63c-1.07,0-2.54,2.54-11.44,14s-8,14.87-7.63,17.22a18.44,18.44,0,0,0,2.35,5.41Z"/></g><g id="right_engine"><g id="engine"><path class="cls-1" d="M617.65,148s14.61-1.93,38.74-1.67,68.74,8.22,68.74,8.22l-39.13,20-60.91-3.65H612.57s.19-9,1.69-14.87A37.11,37.11,0,0,1,617.65,148Z"/><path class="cls-5" d="M614.26,156c-1.5,5.87-1.69,14.87-1.69,14.87h10.62c0-5.29.06-12.76-.06-16.5-.07-2.27-.31-4.7-.59-6.87-3.19.28-4.89.51-4.89.51A37.11,37.11,0,0,0,614.26,156Z"/><path class="cls-6" d="M612.57,170.83h4.89c.07-1,.13-2.15.19-3.49.3-6.75,0-19.37,0-19.37a37.11,37.11,0,0,0-3.39,8C612.76,161.83,612.57,170.83,612.57,170.83Z"/></g><path id="shadow" class="cls-7" d="M685.93,157.85c-8.21,9.19-37.17,13.3-37.17,13.3l9.5,1.67L686,174.48l39.13-20s-18.8-3.35-38.59-5.77C688.47,151.24,689.07,154.34,685.93,157.85Z"/></g><g id="tail_fin"><g id="right_elevator"><polygon id="right_elevator-2" data-name="right_elevator" class="cls-8" points="888.96 99.74 915.3 68.56 874.87 67.13 824.13 87.09 888.96 99.74"/><polygon id="right_elevator_blue" class="cls-3" points="824.13 87.09 830.98 88.42 875.26 69.09 870.79 68.73 824.13 87.09"/><polygon id="right_elevator_trim" class="cls-2" points="888.96 99.74 913.38 70.84 895.48 70.1 862 94.48 888.96 99.74"/></g><path id="fin" class="cls-1" d="M675.21,174.06s0-4,0-7.31c0-1.86,1.83-2.77,3.16-3,3.52-.52,20.15-2.21,27.72-3.91a89.87,89.87,0,0,0,18.09-6.52l3.23-1.57s54.39-42.06,55.76-43.24,14.48-20,19.37-23.67,10.76-4.7,21.33-4.5,14.27-.32,27.2,2c17.8,3.13,41.48,10.89,50.73,13.62a1.81,1.81,0,0,1,.86,2.92l-8.75,10.26-25.63-7.24-2.54,16.44-1,4.89-59.48,72.19Z"/><path class="cls-7" d="M817.32,98.74l-12.67,1s-.54,22.25-2.3,46.54-3.85,35.18-3.92,36.55.92,2.8,7.83,3.71c1.38.18,3.45.37,5.87.56l52.63-63.88,1-4.89,1-6.34Z"/><g id="left_elevator"><path id="left_elevator-2" data-name="left_elevator" class="cls-8" d="M957.83,161.36c-5.81,0-9.66,1-29.09-7.62-27.83-12.33-122.19-51.85-123.87-52.58s-3.21-3.92,3.57-4,81.07,2.59,81.07,2.59l91.78,58.43c1.6,1,2.15,3.17-4.23,3.19S963.63,161.33,957.83,161.36Z"/><path id="left_elevator_trim" class="cls-2" d="M861.14,98.74l97.21,54.74h15.56l-84.4-53.74S876.65,99.27,861.14,98.74Z"/><path id="left_elevator_decal" class="cls-3" d="M933.7,151.52,836,106.13s-2.09.91-9.52-.78-17.9-5.12-19.86-5.77a3.58,3.58,0,0,0-2.88.62,2.62,2.62,0,0,0,1.13,1c1.61.7,88.3,37,120,50.89Z"/></g><path id="fin_decal_blue" class="cls-3" d="M727.09,156.22s56.48-43,58.17-45.13S802.35,90,802.35,90l-2.68-2.31c-5.89,6.46-15.34,19.91-16.5,20.89-1.37,1.18-55.76,43.24-55.76,43.24l-3.23,1.57-.27.13Z"/><path id="fin_decal_gold" class="cls-4" d="M851.07,82.33c-12.93-2.28-16.64-1.76-27.2-2s-16.44.78-21.33,4.5a24.28,24.28,0,0,0-2.87,2.78L802.35,90c2.87-2.55,6.75-3.72,20.15-4s16.92-.06,34,2c11,1.32,27.53,4,38,5.83C883.14,90.25,865.24,84.82,851.07,82.33Z"/></g><g id="fuselage"><path id="body" class="cls-8" d="M160.22,155.57l266.35,6.26S552,163.65,599.78,166s142,9.78,185,19.05c38,8.21,35.8,7.36,41.16,8.73,5.57,1.42,18.17,7.68,4.43,11.42-19,5.15-140,26-162.46,31.76s-37,12-61,16.69-83,12.52-132.53,9.92S359,250.85,315.17,241.13c-28-6.2-44.21-11.28-44.21-11.28l-96.46-1.57c-22.82-.67-45.74-.57-68.45-2-28.92-1.84-73-10.64-73.79-19.7,2.47-6.72,15.82-12.85,41.87-26.42,32.67-17,27.39-17,43.63-20.93S141,155.57,141,155.57Z"/><path id="body-2" data-name="body" class="cls-9" d="M32.26,206.57c.78,9.06,44.87,17.86,73.79,19.7,22.71,1.44,45.63,1.34,68.45,2L271,229.85s-.7-1.7,4.67-2.81,24.94-5.34,40.72-6.91c0,0-198.52,1-214.6.52-15.48-.48-30.69-2.9-40.63-4.5A97,97,0,0,1,32.26,206.57Z"/><g id="cockpit"><path class="cls-10" d="M74.13,180.15s.55,6.39,18.26,10.31a159.71,159.71,0,0,0,32.22,3.78V179.43c-8.61,0-14.48.33-21.82-3.09a60.4,60.4,0,0,1-10.57-6Z"/><path class="cls-11" d="M78,180.69c1.9,2,7.63,5.4,14.48,7,2-2,9.25-8.88,9.32-9a55.64,55.64,0,0,1-10.33-5.81C87.18,175.69,78,180.69,78,180.69Z"/><path class="cls-11" d="M96.34,188.76c4.69,1.32,21.83,3.33,26.2,3.33.13-2.68,0-9,0-10.31-11.85-.11-17.41-1.57-17.41-1.57C101.79,183.55,96.34,188.76,96.34,188.76Z"/></g><g id="windows"><rect class="cls-12" x="200.82" y="188.08" width="9.68" height="14.97" rx="2.3"/><rect class="cls-12" x="225.61" y="188.57" width="9.68" height="14.97" rx="2.3"/><rect class="cls-12" x="250.46" y="189.25" width="9.68" height="14.97" rx="2.3"/><rect class="cls-12" x="275.63" y="189.8" width="9.68" height="14.97" rx="2.3"/><rect class="cls-12" x="300.43" y="190.29" width="9.68" height="14.97" rx="2.3"/><rect class="cls-12" x="325.27" y="190.98" width="9.68" height="14.97" rx="2.3"/><rect class="cls-12" x="349.71" y="191.54" width="9.68" height="14.97" rx="2.3"/><rect class="cls-12" x="374.51" y="192.05" width="9.68" height="14.97" rx="2.3"/><rect class="cls-12" x="399.35" y="192.76" width="9.68" height="14.97" rx="2.3"/><rect class="cls-12" x="424.04" y="192.54" width="9.68" height="14.97" rx="2.3" transform="translate(1.46 -3.11) rotate(0.42)"/><rect class="cls-12" x="448.83" y="193.21" width="9.68" height="14.97" rx="2.3" transform="translate(1.47 -3.29) rotate(0.42)"/><rect class="cls-12" x="473.67" y="194.07" width="9.68" height="14.97" rx="2.3" transform="translate(1.48 -3.47) rotate(0.42)"/><rect class="cls-12" x="497.74" y="194.67" width="9.68" height="14.97" rx="2.3" transform="translate(1.48 -3.64) rotate(0.42)"/><rect class="cls-12" x="522.58" y="195.54" width="9.68" height="14.97" rx="2.3" transform="translate(1.49 -3.82) rotate(0.42)"/></g><g id="decals"><path class="cls-13" d="M614.33,226.65a4.73,4.73,0,0,1-4.74,4.32c-4.4.1-10.88.32-15.58.28-3.55,0-3.57-3.62-3.57-3.62"/><path class="cls-14" d="M590.44,227.63l1.48-31.19s.3-1.81,2.89-1.81h18a2.43,2.43,0,0,1,2.48,2.63c0,1.9-.93,29.39-.93,29.39"/><polygon class="cls-2" points="511.02 166.06 517.02 166.06 521.72 159.74 518 159.74 511.02 166.06"/><polygon class="cls-2" points="326.52 161.67 332.52 161.67 337.22 155.34 333.5 155.34 326.52 161.67"/><path class="cls-7" d="M688.3,232.59l-37.52-39.51s-21.65-.47-32.08,1.55-12.4,3.85-19.05,16.5-8.37,20.48-6.27,24.26,3.56,7.66,14.25,10l16.84,4.16c14.77-3.93,27-8.41,43.4-12.6C671.89,235.93,679.1,234.41,688.3,232.59Z"/><rect class="cls-15" x="157.35" y="173.62" width="24.65" height="52.77" rx="2.78" transform="translate(2.82 -2.36) rotate(0.8)"/></g></g><g id="left_wing"><g id="wing_attachments" data-name="wing attachments"><path class="cls-1" d="M566.32,270.59l-11.85.69a.49.49,0,0,1-.36-.13l-3.36-3.06a.49.49,0,0,1,.35-.86c3.13.14,11,.64,15.39,2.41A.5.5,0,0,1,566.32,270.59Z"/><path class="cls-1" d="M559.67,279.09s7.37,0,10.5.32,4.11,2.09,4.11,2.09h3.79c3.71,0,3,3.65,1.5,3.65h-4.64Z"/><path class="cls-1" d="M596.33,296a11.76,11.76,0,0,1,7-.72c2.66.62,3.27,1,3.66,1.5s1.63,2,0,2.58S596.33,296,596.33,296Z"/><path class="cls-1" d="M626.06,309.17a17.58,17.58,0,0,1,5.72-.65c3,.05,4.73.18,5.06,1,.24.6,1.48,2.43-.15,3S626.06,309.17,626.06,309.17Z"/><path class="cls-1" d="M651.56,320.45a17.4,17.4,0,0,1,5.73-.66c3,0,4.72.19,5.05,1,.24.6,1.48,2.43-.15,3S651.56,320.45,651.56,320.45Z"/></g><path id="wing-2" data-name="wing" class="cls-1" d="M550,251.57s-92-14.25-131.47-19.45-54.76-5.9-68.48-2c-6.78,2-11.35,3.53-11.87,6s9.65,5.09,14.61,6,67,27.66,102,40.44,70.2,24.26,118,38.35,121.3,32.61,122.73,32.74,50-3.79,50-3.79a2.25,2.25,0,0,1,1.17-2C748,347,785,321.48,784.74,320s-2.3-1-2.3-1L772.22,319l-52.44,26.26c-57.29-20.47-109.63-42.65-155.15-67.2Z"/><path id="leading_edge" class="cls-3" d="M710,352.71l-65.91-19c-24.46-7.83-88.44-26.41-119.55-37.37s-76.89-27.2-102.72-35.8-67.37-23.87-70.37-23.74c-1.86.08-6.56,1.32-9.85,2.25,3.3,1.38,78.2,30.75,113.16,43.53s70.2,24.26,118,38.35,121.3,32.61,122.73,32.74c.5,0,6.64-.4,14.46-1Z"/><path id="leading_edge_winglet" class="cls-3" d="M759.38,325.45l-39.6,19.83L709.61,351,708,352.86l3.82-.29,52.75-26.92Z"/><path id="gold_trim" class="cls-4" d="M782.53,322.2h-6.79s-20.94,12.22-27.88,16.33c-6.1,3.61-4.3,7.29-1.83,10a3.15,3.15,0,0,1,.62-.56C747.76,347.18,774.58,328.67,782.53,322.2Z"/><path class="cls-2" d="M547.41,278.37l99.47,43.92,9.53-1.26a973.38,973.38,0,0,1-91.78-42.95L550,251.57l-19.6-3Z"/><path class="cls-2" d="M655.61,320.7,643.09,323l72.13,25,4.56-2.68Q686.53,333.4,655.61,320.7Z"/></g><g id="left_engine"><path id="engine-2" data-name="engine" class="cls-1" d="M678.3,188.57c22.9,1,50.68,3.75,73.37,9.31l22.7,5.55a65.46,65.46,0,0,1,1.08,14.29c-.2,8.61-2.45,12.52-2.45,12.52s-54.78,12.38-84.91,11.4S646.8,237.28,633.5,233c-3.13-3.78-4.3-9.2-3.72-20.74s1.18-19.76,10.57-21.91S678.3,188.57,678.3,188.57Z"/><path class="cls-5" d="M642.89,212.53c.47-10.18-1.56-17.41-3.55-21.92-8.4,2.51-9,10.52-9.56,21.63-.58,11.54.59,17,3.72,20.74,1.88.61,3.72,1.2,5.57,1.76A99.2,99.2,0,0,0,642.89,212.53Z"/><path class="cls-6" d="M634.78,193.08c-4.12,3.77-4.56,10.53-5,19.16-.58,11.54.59,17,3.72,20.74h0c1.62-4.26,3.35-11.22,3.88-22.12C637.88,201.39,636.5,196.07,634.78,193.08Z"/><path class="cls-16" d="M636.72,198.55a40.28,40.28,0,0,0-2.05,14c.11,5.46.44,10.12.81,13.77a91.36,91.36,0,0,0,1.93-15.47A49.23,49.23,0,0,0,636.72,198.55Z"/></g></svg>