<svg id="Layer_2" data-name="Layer 2" xmlns="http://www.w3.org/2000/svg" viewBox="0 0 497.68 234.73"><path d="M2.26,362.85a29.86,29.86,0,0,1,6.24-.19,47.45,47.45,0,0,1,6,.77l1.47.3a5.4,5.4,0,0,0,1,.19,3.67,3.67,0,0,0,.81,0l1.35-.29L25,362.36l23.41-4.95,46.82-9.88c15.6-3.32,31.23-6.49,46.85-9.73L189,328.14l46.92-9.43,23.46-4.7,23.48-4.61,23.49-4.58,11.76-2.26c1.91-.37,4.06-.74,6.12-1.1l6-.56c1-.09,1.92-.2,2.89-.32l1.46-.19.73-.1c.24,0,.33-.08.51-.11a4.47,4.47,0,0,0,2.87-1.93c.15-.39.13-.42.07-.55a2.37,2.37,0,0,0-1-.84,9,9,0,0,0-2.16-.79c-.36-.12-.91-.22-1.37-.34l-1.44-.32a225.39,225.39,0,0,1-23.1-6.32,64.26,64.26,0,0,1,12.16-.25,102.6,102.6,0,0,1,12,1.48l1.48.29c.51.11.95.16,1.55.33a14.52,14.52,0,0,1,3.44,1.25l.88.51a6.84,6.84,0,0,1,.87.7l.43.38c.14.14.27.33.4.49a5.57,5.57,0,0,1,.7,1.1,6.88,6.88,0,0,1,.46,1.32,8.27,8.27,0,0,1,.12,1.4,8.07,8.07,0,0,1-.2,1.32c-.12.4-.27.8-.42,1.18a8.88,8.88,0,0,1-2.83,3.25,10.14,10.14,0,0,1-3.66,1.67c-.32.06-.7.15-1,.19l-.75.12-1.5.21c-1,.14-2,.27-3,.38l-5.93.63c-1.87.37-3.64.69-5.64,1.11l-11.71,2.39L284,315.41l-46.85,9.71-46.86,9.68L96.51,353.74l-46.94,9.31L26.1,367.71l-5.86,1.17-1.58.3a8.38,8.38,0,0,1-2.18.06,10,10,0,0,1-1.87-.42l-1.43-.46a49.66,49.66,0,0,1-5.59-2.28A30,30,0,0,1,2.26,362.85Z" transform="translate(-2.26 -134.55)"/><path d="M324.79,308.62c8.85-1.54,17.87-1.68,26.61-2.16a117.75,117.75,0,0,0,13-1.31c2.12-.35,4.21-.83,6.28-1.38l3.21-.9c1.12-.31,2.23-.55,3.34-.82,4.44-1,8.89-1.67,13.34-2.27s8.93-1,13.41-1.32,9-.47,13.51-.42c2.26,0,4.56.1,6.81.27l6.67.55c8.85.79,17.67,1.53,26.5,2,4.41.21,8.82.34,13.21.31a117.61,117.61,0,0,0,13.06-.69,44.55,44.55,0,0,0,6.25-1.15,19.47,19.47,0,0,0,2.82-1,7,7,0,0,0,2.11-1.35,1.81,1.81,0,0,0,.64-1.4,2.8,2.8,0,0,0-.18-.94c-.16-.45-.34-.89-.55-1.34a26.36,26.36,0,0,0-3.32-5.13,67.26,67.26,0,0,0-9.15-9c-3.34-2.78-6.86-5.38-10.47-7.88s-7.3-4.87-11.08-7.13c-1.88-1.14-3.79-2.25-5.7-3.34l-2.89-1.65c-.45-.25-1.06-.6-1.55-.93l-1.46-1c-3.69-2.55-7.24-4.94-11-7.05a84,84,0,0,0-11.62-5.44,71.93,71.93,0,0,0-12.26-3.4c-2.09-.39-4.19-.66-6.29-.84l-1.59-.13-1.66-.11-3.32-.21-26.59-1.75-26.59-1.85-26.58-2-26.58-1.92-13.29-.94-6.63-.47c-2.19-.14-4.46-.3-6.46-.38h-.32l-.09,0c-7.09-1-14.07-2.13-21.07-3.48a186.07,186.07,0,0,1-20.9-5.12c-1.73-.55-3.47-1.19-5.2-1.91a25.61,25.61,0,0,1-5.24-2.85c-1.58-1.2-2.88-2.4-4.22-3.63s-2.6-2.45-3.88-3.69c-5.09-5-10-10-14.94-15.09S183,184.87,178,179.86q-3.71-3.75-7.48-7.42c-2.52-2.41-5.08-4.87-7.69-6.93-.32-.22-.66-.49-1-.68l-.43-.27-.56-.28c-.74-.39-1.5-.73-2.27-1.06a24.89,24.89,0,0,0-4.71-1.46,19.68,19.68,0,0,0-9.64.45,24.46,24.46,0,0,0-4.54,1.95c-1.5.83-3,1.73-4.44,2.67a64,64,0,0,0-8.2,6.19h0l.16-1.24,1.05,4.42-3-3.41-.45-.52.61-.73h0a47.2,47.2,0,0,1,8.18-7.15c1.48-1,3-2,4.54-2.94a27.84,27.84,0,0,1,5.11-2.34,22.88,22.88,0,0,1,11.26-.8,27.88,27.88,0,0,1,5.43,1.54c.86.34,1.72.7,2.55,1.11l.63.3.7.4c.46.28.82.55,1.23.83,3,2.24,5.57,4.62,8.2,7s5.18,4.84,7.73,7.29c5.09,4.91,10.13,9.86,15.17,14.79s10.08,9.86,15.21,14.63c1.28,1.18,2.57,2.37,3.86,3.5s2.62,2.28,3.88,3.18a20.21,20.21,0,0,0,4.11,2.07q2.31.9,4.77,1.62a189.2,189.2,0,0,0,20.3,4.52c6.87,1.2,13.84,2.21,20.75,3l-.41,0c2.44,0,4.61.17,6.86.27l6.67.34,13.32.79,26.61,1.69L348.76,229l26.6,1.93c8.86.71,17.72,1.36,26.58,2.16l3.33.3,1.66.15,1.73.18c2.32.26,4.62.61,6.89,1.09a79.12,79.12,0,0,1,13.3,4A87.88,87.88,0,0,1,441.2,245c3.92,2.34,7.68,5,11.22,7.63l1.3.91c.43.3.78.51,1.28.82l2.86,1.73c1.92,1.17,3.82,2.35,5.71,3.56,3.77,2.43,7.52,4.9,11.18,7.53s7.24,5.36,10.68,8.33a71.76,71.76,0,0,1,9.63,9.84,30,30,0,0,1,3.78,6.12c.26.57.48,1.16.69,1.76a7.26,7.26,0,0,1,.41,2.32,5.91,5.91,0,0,1-.53,2.54,6.77,6.77,0,0,1-1.41,2,11.69,11.69,0,0,1-3.44,2.25,24.7,24.7,0,0,1-3.48,1.19,49.26,49.26,0,0,1-6.86,1.24c-9.08,1-18,.83-27,.56s-17.84-1-26.7-1.64l-6.62-.5c-2.18-.14-4.32-.2-6.5-.21-4.36,0-8.75.19-13.13.51a217.31,217.31,0,0,0-26.07,3.37c-1.05.24-2.12.45-3.15.72l-3.22.83c-2.24.56-4.49,1-6.76,1.36a84.06,84.06,0,0,1-13.59.92c-2.25,0-4.49-.13-6.73-.24l-6.66-.5C333.68,309.55,329.25,309.13,324.79,308.62Z" transform="translate(-2.26 -134.55)"/><path d="M287.76,292.51c-10.45,4.88-21.77,6.84-32.77,9.78l-33.17,8.34-66.38,16.53C133.28,332.54,111.14,338,89,343.33l-33.26,8c-11.12,2.52-22,6-33.66,6.38a1,1,0,0,1-.45-1.84c10.5-5,21.75-7,32.78-9.95l33.17-8.34c22.11-5.57,44.27-11,66.4-16.47L220.45,305l33.27-7.93,16.64-3.94c2.78-.64,5.58-1.2,8.42-1.6,1.41-.23,2.84-.39,4.27-.55s2.92-.26,4.38-.26a.92.92,0,0,1,.92.91.91.91,0,0,1-.53.82Z" transform="translate(-2.26 -134.55)"/><path d="M277.23,294.74c-4.24.64-8-.44-11.69-1.61a115.88,115.88,0,0,1-10.77-4.53c-1.76-.86-3.48-1.82-5.2-2.82l-2.51-1.57c-.8-.5-1.63-.92-2.43-1.38a17.1,17.1,0,0,1-2.26-1.64l-2.21-1.74c-.75-.57-1.5-1.14-2.27-1.69a10.28,10.28,0,0,0-2.51-1.41,6.81,6.81,0,0,1,3.1-.37,20.56,20.56,0,0,1,3.05.44l1.49.36,1.44.44a12.69,12.69,0,0,1,2.75,1.16c.86.49,1.65,1.08,2.49,1.59s1.6.92,2.4,1.38c1.63.87,3.28,1.7,5,2.48,3.37,1.62,6.83,3.09,10.32,4.54s6.89,3.08,9.94,6.06Z" transform="translate(-2.26 -134.55)"/><path d="M174,168.9l29.65-32.28.58,1.61-7.75-1,.92-.18c-2.87,2-5.8,3.88-8.75,5.74s-5.91,3.69-8.9,5.48-6,3.55-9,5.3a39,39,0,0,1-9.64,4.29,38.94,38.94,0,0,1,8.17-6.68c2.92-1.91,5.83-3.82,8.78-5.67s5.91-3.7,8.9-5.5,6-3.55,9.06-5.23l.5-.27.42.1,7.64,1.65,1.58.34-1,1.26-27.35,34.25a2.5,2.5,0,0,1-3.91-3.12Z" transform="translate(-2.26 -134.55)"/><path d="M164.44,177.59c-4.81,1.86-9.72,3.41-14.65,4.86s-9.9,2.73-14.86,4.08l-29.75,8.07-29.8,7.91q-14.91,3.92-29.85,7.71l-.33.09-.22,0-9.92-1.48-3.71-.55,3.5-1.22,11.92-4.15c4-1.38,7.95-2.75,11.94-4.08,8-2.67,15.94-5.41,23.95-8l24-7.85c8-2.57,16.07-5,24.29-7a.23.23,0,0,1,.27.17.22.22,0,0,1-.13.26c-7.76,3.33-15.69,6.17-23.65,8.88l-23.94,8c-8,2.7-16,5.24-24,7.85q-6,2-12,3.85l-12,3.77L35.2,207l10,.09-.54.05q14.79-4.34,29.62-8.52L104,190.27l29.73-8.17c5-1.35,9.9-2.76,14.88-4s10-2.41,15.09-3.25a1.43,1.43,0,0,1,1.66,1.19A1.46,1.46,0,0,1,164.44,177.59Z" transform="translate(-2.26 -134.55)"/><path d="M145.94,183.94c.92,0,1.84-.05,2.77,0,.47,0,.94,0,1.42.07l.73.08a5,5,0,0,1,.84.16h0l.36.15.25.32c5.82,7.54,11.58,15.13,17.35,22.71q4.35,5.67,8.63,11.39c2.86,3.81,5.73,7.61,8.54,11.46a1,1,0,0,1-.22,1.42,1,1,0,0,1-1.39-.18c-3-3.71-5.94-7.45-8.89-11.19s-5.9-7.48-8.82-11.24c-5.85-7.52-11.73-15-17.53-22.58l.61.47h0a2.11,2.11,0,0,0-.44-.23l-.58-.24c-.39-.15-.8-.29-1.22-.42-.83-.27-1.69-.5-2.56-.72a.71.71,0,0,1,.14-1.4Z" transform="translate(-2.26 -134.55)"/><path d="M179.22,236.52a19.27,19.27,0,0,1,5.25-3.09,27.94,27.94,0,0,1,5.72-1.66,45.11,45.11,0,0,1,5.94-.61c2-.1,3.87-.16,5.8-.22a169.17,169.17,0,0,1,23.23,1,56.63,56.63,0,0,1,11.58,2.52,40.73,40.73,0,0,1,5.52,2.3,22.8,22.8,0,0,1,5.08,3.45,9.08,9.08,0,0,1,1.94,2.69c.41.9.76,1.83,1.1,2.77a28.67,28.67,0,0,1,1.43,5.79,24.33,24.33,0,0,1,0,6l-.3,1.49c0,.25-.09.5-.16.75l-.24.72-.5,1.44-.67,1.37a20.07,20.07,0,0,1-3.57,4.9c-.68.74-1.5,1.33-2.25,2a9.63,9.63,0,0,1-1.2.9l-1.23.84a38.24,38.24,0,0,1-10.91,4.74,60.3,60.3,0,0,1-23.55.94c-1.95-.26-3.89-.62-5.81-1L198.6,276c-.91-.19-2-.43-2.91-.68a60.86,60.86,0,0,1-11.28-4.07,32.36,32.36,0,0,1-9.83-7.34,20.53,20.53,0,0,1-3.38-5.32,14.1,14.1,0,0,1-1.18-6.1.64.64,0,0,1,.67-.61.66.66,0,0,1,.53.33h0a27,27,0,0,0,6.86,8.15,50.52,50.52,0,0,0,8.94,5.74,62.88,62.88,0,0,0,10.09,4.28c.9.28,1.7.52,2.65.77l2.76.75c1.81.47,3.62.9,5.45,1.24,7.3,1.37,14.84,1.89,22.11.5a35.47,35.47,0,0,0,10.3-3.84,19.07,19.07,0,0,0,7.66-7.5l.61-1.2.44-1.27.22-.63c.06-.22.1-.44.15-.66l.27-1.32a19,19,0,0,0-.06-5.43,27.31,27.31,0,0,0-1.42-5.3,25.91,25.91,0,0,0-1.14-2.52,6.47,6.47,0,0,0-1.5-1.86,17.35,17.35,0,0,0-4.58-2.7,37.31,37.31,0,0,0-5.24-1.71,52.39,52.39,0,0,0-11-1.47c-7.5-.25-15.11,0-22.7.33-1.89.06-3.83.12-5.68.21s-3.65.31-5.49.48-3.7.27-5.6.29a37.35,37.35,0,0,1-5.9-.32h0a.38.38,0,0,1-.31-.43A.4.4,0,0,1,179.22,236.52Z" transform="translate(-2.26 -134.55)"/><path d="M245.42,245.85a9.88,9.88,0,0,0-5.64-2.49,11.68,11.68,0,0,0-5.94.72,7.77,7.77,0,0,0-4,3.58,12.43,12.43,0,0,0-1.27,5.59,28,28,0,0,0,.16,3.14,19,19,0,0,0,.56,3,10.8,10.8,0,0,0,1.06,2.62,7.05,7.05,0,0,0,1.62,2,9.2,9.2,0,0,0,5.3,1.85,29.83,29.83,0,0,0,6.77-.42,13.87,13.87,0,0,1-3,2,14.4,14.4,0,0,1-3.52,1.23,11.65,11.65,0,0,1-3.93.21,9.58,9.58,0,0,1-4-1.39,11.58,11.58,0,0,1-4.75-6.77,21.63,21.63,0,0,1-.75-3.8,33.65,33.65,0,0,1-.15-3.78,15.8,15.8,0,0,1,2.19-7.7,11.64,11.64,0,0,1,6.57-4.9,13.69,13.69,0,0,1,7.75.16,11.87,11.87,0,0,1,3.43,1.67,8.27,8.27,0,0,1,2.59,2.8.61.61,0,0,1-1,.73Z" transform="translate(-2.26 -134.55)"/><path d="M248,204.48a104.78,104.78,0,0,1,12.36-4.71,83.82,83.82,0,0,1,13.06-3c4.32-.59,8.53-1.16,12.9-1.66a87.9,87.9,0,0,1,13.5-.65l1.76.12,1.74.2,3.24.42a56.25,56.25,0,0,1,6.76,1.31,28.77,28.77,0,0,1,6.74,2.65,18.74,18.74,0,0,1,5.8,5A18,18,0,0,1,329,211a22,22,0,0,1,.53,3.65,27.63,27.63,0,0,1,0,3.64,21,21,0,0,1-3.7,10.39c-.36.51-.73,1-1.14,1.49l-.64.71c-.24.25-.43.44-.77.75a2.5,2.5,0,0,1-3.44-3.62l.17-.17c.05-.05.25-.24.39-.4l.44-.51c.29-.35.56-.73.82-1.11a16.81,16.81,0,0,0,1.35-2.46,16.18,16.18,0,0,0,1.31-5.44,23,23,0,0,0,0-2.87,18,18,0,0,0-.46-2.8,12.46,12.46,0,0,0-2.33-4.79c-2.2-2.74-5.75-4.36-9.63-5.26a56.89,56.89,0,0,0-6.09-1l-3.23-.37L301,200.7l-1.5-.09a87.28,87.28,0,0,0-12.55.74l-6.5.62c-2.18.17-4.43.28-6.58.36-8.34.36-16.94,1.91-25.52,3.36h0a.64.64,0,0,1-.37-1.22Z" transform="translate(-2.26 -134.55)"/><path d="M318.57,229.37a13.91,13.91,0,0,1-5,1.6,12,12,0,0,1-5.6-.63,10,10,0,0,1-4.67-3.75c-.28-.41-.54-.84-.81-1.27s-.38-.89-.57-1.33a14.69,14.69,0,0,1-.82-2.73,22.32,22.32,0,0,1-.47-5.47,14.8,14.8,0,0,1,1.3-5.53c1.57-3.57,5.08-6.27,8.79-6.34a.49.49,0,0,1,.49.47.5.5,0,0,1-.22.41l-.06,0a12.69,12.69,0,0,0-3.36,3.1,11.41,11.41,0,0,0-1.83,3.78,15.66,15.66,0,0,0-.42,2.06c0,.71-.14,1.43-.13,2.16a18.65,18.65,0,0,0,.09,2.23,14.48,14.48,0,0,0,.28,2.22c.5,2.87,1.6,5.38,3.92,6.77s5.63,1.72,8.86,1.44h0a.41.41,0,0,1,.44.37A.41.41,0,0,1,318.57,229.37Z" transform="translate(-2.26 -134.55)"/><path d="M355,227.24a4.1,4.1,0,0,1,.9-3l1.82-2.16,3.66-4.31,7.32-8.61c4.91-5.71,9.78-11.46,14.74-17.13L398.27,175c5-5.62,10-11.3,15.05-16.87l.42-.46.54-.06h0a42.09,42.09,0,0,1,5.82-.52,23.92,23.92,0,0,1,3,.18,9.66,9.66,0,0,1,3.28.94,4.44,4.44,0,0,1,.88.58,3.29,3.29,0,0,1,.43.41l.11.11s0,0,.07.09a1.77,1.77,0,0,1,.16.22,2.42,2.42,0,0,1,.18.4,2.24,2.24,0,0,1,.09.3,3.93,3.93,0,0,1,.05,1.29c0,.31-.07.59-.12.85-.19,1-.45,2-.71,2.91-.54,1.84-1.14,3.63-1.77,5.41-2.54,7.07-5.37,14-8.28,20.85s-5.92,13.69-9,20.5l-4.65,10.17-2.35,5.07c-.93,1.62-1,3.66-3.78,4.43a.31.31,0,0,1-.35-.16c-1.28-2.62.22-4,.81-5.76l2.22-5.12,4.41-10.26c3-6.82,5.86-13.67,8.77-20.51q2.19-5.13,4.3-10.28c1.42-3.43,2.81-6.86,4.12-10.31.65-1.72,1.3-3.44,1.86-5.16.28-.85.55-1.71.72-2.49,0-.19.07-.38.09-.53s0-.3,0-.1l0,.14c0,.05.05.11.12.24l.11.15c.05,0,0,0,0,0v0a.45.45,0,0,0-.07-.07,1.72,1.72,0,0,0-.27-.2,6.6,6.6,0,0,0-2.06-.63,19,19,0,0,0-2.55-.23,37.93,37.93,0,0,0-5.33.16h0l1-.53c-4.74,5.87-9.6,11.63-14.4,17.44l-14.59,17.26c-4.86,5.76-9.8,11.45-14.7,17.17l-7.41,8.54-3.7,4.27L359,227a4.13,4.13,0,0,1-2.78,1.33,1.16,1.16,0,0,1-1.26-1.06Z" transform="translate(-2.26 -134.55)"/></svg>