<svg id="Layer_1" data-name="Layer 1" xmlns="http://www.w3.org/2000/svg" viewBox="0 0 176.6 208.19"><defs><style>.cls-1,.cls-2{fill:none;stroke:#fff;stroke-miterlimit:10;stroke-width:7px;}.cls-2{stroke-dasharray:27.19 4.53;}.cls-3{font-size:106px;font-family:ArialMT, Arial;}.cls-3,.cls-4{fill:#fff;}</style></defs><polyline class="cls-1" points="133.21 158.77 133.21 173.77 118.21 173.77"/><line class="cls-2" x1="113.67" y1="173.77" x2="20.77" y2="173.77"/><polyline class="cls-1" points="18.5 173.77 3.5 173.77 3.5 158.77"/><line class="cls-2" x1="3.5" y1="154.24" x2="3.5" y2="61.33"/><polyline class="cls-1" points="3.5 59.06 3.5 44.06 18.5 44.06"/><line class="cls-2" x1="23.03" y1="44.06" x2="115.94" y2="44.06"/><polyline class="cls-1" points="118.21 44.06 133.21 44.06 133.21 59.06"/><line class="cls-2" x1="133.21" y1="63.59" x2="133.21" y2="156.5"/><text class="cls-3" transform="translate(9.18 152.22)">://</text><line class="cls-1" x1="116.85" y1="59.75" x2="163.33" y2="13.26"/><polygon class="cls-4" points="101.55 75.05 127.49 68.1 108.5 49.11 101.55 75.05"/><polygon class="cls-4" points="176.6 0 169.65 25.94 150.66 6.95 176.6 0"/></svg>