<svg xmlns="http://www.w3.org/2000/svg" xmlns:xlink="http://www.w3.org/1999/xlink" viewBox="0 0 1721.06 1080"><defs><style>.cls-1{fill:#000500;}.cls-10,.cls-11,.cls-12,.cls-13,.cls-14,.cls-15,.cls-16,.cls-17,.cls-18,.cls-19,.cls-2,.cls-20,.cls-21,.cls-3,.cls-4,.cls-5,.cls-6,.cls-7,.cls-8,.cls-9{fill:none;stroke-miterlimit:10;stroke-width:3px;}.cls-2{stroke:url(#linear-gradient);}.cls-3{stroke:url(#linear-gradient-2);}.cls-4{stroke:url(#linear-gradient-3);}.cls-5{stroke:url(#linear-gradient-4);}.cls-6{stroke:url(#linear-gradient-5);}.cls-7{stroke:url(#linear-gradient-6);}.cls-8{stroke:url(#linear-gradient-7);}.cls-9{stroke:url(#linear-gradient-8);}.cls-10{stroke:url(#linear-gradient-9);}.cls-11{stroke:url(#linear-gradient-10);}.cls-12{stroke:url(#linear-gradient-11);}.cls-13{stroke:url(#linear-gradient-12);}.cls-14{stroke:url(#linear-gradient-13);}.cls-15{stroke:url(#linear-gradient-14);}.cls-16{stroke:url(#linear-gradient-15);}.cls-17{stroke:url(#linear-gradient-16);}.cls-18{stroke:url(#linear-gradient-17);}.cls-19{stroke:url(#linear-gradient-18);}.cls-20{stroke:url(#linear-gradient-19);}.cls-21{stroke:url(#linear-gradient-20);}.cls-22{fill:#fffb00;}</style><linearGradient id="linear-gradient" y1="230.72" x2="473.31" y2="230.72" gradientUnits="userSpaceOnUse"><stop offset="0" stop-color="#fffb00"/><stop offset="0.29" stop-color="#948000"/><stop offset="0.84" stop-color="#ae9e00"/><stop offset="1" stop-color="#fffb00"/></linearGradient><linearGradient id="linear-gradient-2" y1="216.87" x2="467.02" y2="216.87" xlink:href="#linear-gradient"/><linearGradient id="linear-gradient-3" y1="558.02" x2="543.93" y2="558.02" xlink:href="#linear-gradient"/><linearGradient id="linear-gradient-4" x1="305.76" y1="753.8" x2="415.2" y2="753.8" xlink:href="#linear-gradient"/><linearGradient id="linear-gradient-5" x1="285.02" y1="748.31" x2="396.41" y2="748.31" xlink:href="#linear-gradient"/><linearGradient id="linear-gradient-6" y1="748.27" x2="175.47" y2="748.27" xlink:href="#linear-gradient"/><linearGradient id="linear-gradient-7" y1="668.66" x2="219.23" y2="668.66" xlink:href="#linear-gradient"/><linearGradient id="linear-gradient-8" x1="198.84" y1="831.55" x2="342.22" y2="831.55" xlink:href="#linear-gradient"/><linearGradient id="linear-gradient-9" y1="476.59" x2="212.12" y2="476.59" xlink:href="#linear-gradient"/><linearGradient id="linear-gradient-10" y1="496.9" x2="251.44" y2="496.9" xlink:href="#linear-gradient"/><linearGradient id="linear-gradient-11" x1="1399.07" y1="917.16" x2="1504.2" y2="917.16" xlink:href="#linear-gradient"/><linearGradient id="linear-gradient-12" x1="1411.33" y1="917.16" x2="1518.15" y2="917.16" xlink:href="#linear-gradient"/><linearGradient id="linear-gradient-13" x1="1515.59" y1="655.06" x2="1720" y2="655.06" xlink:href="#linear-gradient"/><linearGradient id="linear-gradient-14" x1="1501.2" y1="464.99" x2="1721.06" y2="464.99" xlink:href="#linear-gradient"/><linearGradient id="linear-gradient-15" x1="1552.63" y1="481" x2="1720" y2="481" xlink:href="#linear-gradient"/><linearGradient id="linear-gradient-16" x1="1547" y1="560.93" x2="1720" y2="560.93" xlink:href="#linear-gradient"/><linearGradient id="linear-gradient-17" x1="1403.76" y1="336.41" x2="1488.74" y2="336.41" xlink:href="#linear-gradient"/><linearGradient id="linear-gradient-18" x1="1387.33" y1="336.41" x2="1474.46" y2="336.41" xlink:href="#linear-gradient"/><linearGradient id="linear-gradient-19" x1="1415.5" y1="188.98" x2="1535.54" y2="188.98" xlink:href="#linear-gradient"/><linearGradient id="linear-gradient-20" x1="1568.83" y1="308.43" x2="1721.06" y2="308.43" xlink:href="#linear-gradient"/></defs><g id="Layer_1" data-name="Layer 1"><rect class="cls-1" width="1720" height="1080"/></g><g id="Layer_2" data-name="Layer 2"><polyline class="cls-2" points="0 280.5 372.25 280.5 472.25 180.5"/><polyline class="cls-3" points="0 266.65 365.96 266.65 465.96 166.65"/><polyline class="cls-4" points="430.91 1080 430.91 754.22 327.61 650.91 327.61 495.96 420.35 403.22 420.35 355.09 372.8 307.54 542.43 137.91 542.43 63.96 516.02 37.54 0 37.54"/><polyline class="cls-5" points="413.7 1080 413.7 765.17 307.26 658.74 307.26 489.7 368.3 428.65"/><polyline class="cls-6" points="394.91 1080 394.91 776.13 286.52 661.87 286.52 481.87 352.65 417.7"/><polyline class="cls-7" points="0 770.65 129.22 770.65 174.41 725.46"/><polyline class="cls-8" points="0 754.33 119.83 754.33 182.69 691.47 182.69 618.04 218.17 582.56"/><polyline class="cls-9" points="340.72 1080 340.72 816.43 200.34 676.05 200.34 621.57 237.73 584.17"/><polyline class="cls-10" points="0 453.7 164.83 453.7 211.06 499.93"/><polyline class="cls-11" points="0 469.87 156.48 469.87 210.54 523.93 236.13 523.93 249.94 510.12 249.94 484.48"/><polyline class="cls-12" points="1400.57 1080 1400.57 979.61 1502.7 877.48 1502.7 754.33"/><polyline class="cls-13" points="1412.83 1080 1412.83 986.39 1516.65 882.57 1516.65 754.33"/><polyline class="cls-14" points="1516.65 702.57 1611.22 608 1720 608"/><polyline class="cls-15" points="1502.7 672.83 1502.7 527.26 1580.37 449.59 1661.17 449.59 1699.82 410.95 1699.82 278.39 1720 258.21"/><polyline class="cls-16" points="1553.7 498.04 1587.35 464.39 1720 464.39"/><polyline class="cls-17" points="1720 592.48 1611.61 592.48 1548.07 528.93"/><polyline class="cls-18" points="1487.24 672.83 1487.24 288.17 1405.26 202.48 1405.26 0"/><polyline class="cls-19" points="1472.96 672.83 1472.96 294.04 1388.83 209.33 1388.83 0"/><polyline class="cls-20" points="1417 0 1417 195.44 1501.13 285.44 1501.13 349.22 1534.59 376.8"/><polyline class="cls-21" points="1720 239.26 1685.89 273.37 1685.89 328.48 1637.21 377.16 1568.83 377.16"/><circle class="cls-22" cx="218.17" cy="582.56" r="5.59"/><circle class="cls-22" cx="237.73" cy="584.17" r="5.59"/><circle class="cls-22" cx="174.41" cy="725.46" r="5.59"/><circle class="cls-22" cx="249.94" cy="488" r="5.59"/><circle class="cls-22" cx="211.06" cy="499.93" r="5.59"/><circle class="cls-22" cx="351.74" cy="417.7" r="5.59"/><circle class="cls-22" cx="368.55" cy="428.65" r="5.59"/><circle class="cls-22" cx="465.96" cy="165.7" r="5.59"/><circle class="cls-22" cx="472.25" cy="180.5" r="5.59"/><circle class="cls-22" cx="1568.83" cy="377.16" r="5.59"/><circle class="cls-22" cx="1534.59" cy="376.8" r="5.59"/><circle class="cls-22" cx="1553.7" cy="498.04" r="5.59"/><circle class="cls-22" cx="1548.07" cy="528.17" r="5.59"/><circle class="cls-22" cx="1516.65" cy="702.57" r="5.59"/><circle class="cls-22" cx="1516.65" cy="754.33" r="5.59"/><circle class="cls-22" cx="1502.7" cy="754.33" r="5.59"/><circle class="cls-22" cx="1502.7" cy="672.83" r="5.59"/><circle class="cls-22" cx="1487.24" cy="672.83" r="5.59"/><circle class="cls-22" cx="1472.96" cy="672.83" r="5.59"/></g></svg>