<svg id="Layer_2" data-name="Layer 2" xmlns="http://www.w3.org/2000/svg" viewBox="0 0 135.26 126.34"><defs><style>.cls-1,.cls-2{fill:#1772ff;stroke:#fff;stroke-miterlimit:10;}.cls-1{stroke-width:2px;}.cls-2{stroke-width:5px;}</style></defs><g id="plus"><polygon class="cls-1" points="44.68 62.75 65.56 62.75 65.56 41.87 73.46 41.87 73.46 62.75 94.34 62.75 94.34 70.65 73.46 70.65 73.46 91.53 65.56 91.53 65.56 70.65 44.68 70.65 44.68 62.75"/><path d="M85.86,106.74H71.19V85.87H50.32V71.2H71.19V50.32H85.86V71.2h20.88V85.87H85.86Zm-11.28-3.38h7.9V82.48h20.88v-7.9H82.48V53.7h-7.9V74.58H53.7v7.9H74.58Z" transform="translate(-9.02 -11.83)"/><polygon class="cls-1" points="82.22 46.19 103.09 46.19 103.09 25.31 110.99 25.31 110.99 46.19 131.87 46.19 131.87 54.09 110.99 54.09 110.99 74.97 103.09 74.97 103.09 54.09 82.22 54.09 82.22 46.19"/><path d="M123.4,90.18H108.73V69.31H87.85V54.64h20.88V33.76H123.4V54.64h20.88V69.31H123.4ZM112.11,86.8H120V65.92h20.88V58H120V37.14h-7.9V58H91.24v7.9h20.87Z" transform="translate(-9.02 -11.83)"/></g><path class="cls-2" d="M58.29,135.67c-16.1,0-28.81-6.5-36.77-18.79-6.64-10.24-10-24.34-10-41.88s3.36-31.64,10-41.88c8-12.29,20.67-18.79,36.77-18.79a60.26,60.26,0,0,1,42.9,17.77l-8.78,8.78A47.91,47.91,0,0,0,58.29,26.74C35.49,26.74,23.93,43,23.93,75s11.56,48.26,34.36,48.26a47.91,47.91,0,0,0,34.12-14.14l8.78,8.78A60.26,60.26,0,0,1,58.29,135.67Z" transform="translate(-9.02 -11.83)"/><path d="M58.29,137.36c-16.7,0-29.91-6.76-38.19-19.56C13.28,107.28,9.83,92.88,9.83,75S13.28,42.72,20.1,32.2c8.28-12.8,21.49-19.56,38.19-19.56a62,62,0,0,1,44.1,18.26l1.2,1.2L92.41,43.27l-1.19-1.19A46.25,46.25,0,0,0,58.29,28.44C36.62,28.44,25.63,44.1,25.63,75s11,46.56,32.66,46.56a46.29,46.29,0,0,0,32.93-13.63l1.19-1.2,11.17,11.17-1.19,1.2A62,62,0,0,1,58.29,137.36ZM58.29,16c-15.5,0-27.72,6.23-35.35,18-6.46,10-9.73,23.75-9.73,41s3.27,31,9.73,41c7.63,11.79,19.85,18,35.35,18a58.58,58.58,0,0,0,40.49-16.1l-6.39-6.38A49.61,49.61,0,0,1,58.29,125c-23.92,0-36-16.81-36-49.95S34.37,25.05,58.29,25.05A49.61,49.61,0,0,1,92.39,38.5l6.39-6.38A58.58,58.58,0,0,0,58.29,16Z" transform="translate(-9.02 -11.83)"/></svg>